<svg id="bullet-list-69" xmlns="http://www.w3.org/2000/svg" width="13.783" height="13.783" viewBox="0 0 13.783 13.783">
  <rect id="Rectangle_5038" data-name="Rectangle 5038" width="9" height="2" transform="translate(4.783 0.783)" fill="#fff"/>
  <rect id="Rectangle_5039" data-name="Rectangle 5039" width="9" height="2" transform="translate(4.783 5.783)" fill="#fff"/>
  <rect id="Rectangle_5040" data-name="Rectangle 5040" width="9" height="2" transform="translate(4.783 10.783)" fill="#fff"/>
  <path id="Path_122953" data-name="Path 122953" d="M2.584,0H.861A.814.814,0,0,0,0,.861V2.584a.814.814,0,0,0,.861.861H2.584a.814.814,0,0,0,.861-.861V.861A.814.814,0,0,0,2.584,0Z" fill="#fff"/>
  <path id="Path_122954" data-name="Path 122954" d="M2.584,6H.861A.814.814,0,0,0,0,6.861V8.584a.814.814,0,0,0,.861.861H2.584a.814.814,0,0,0,.861-.861V6.861A.814.814,0,0,0,2.584,6Z" transform="translate(0 -0.831)" fill="#fff"/>
  <path id="Path_122955" data-name="Path 122955" d="M2.584,12H.861A.814.814,0,0,0,0,12.861v1.723a.814.814,0,0,0,.861.861H2.584a.814.814,0,0,0,.861-.861V12.861A.814.814,0,0,0,2.584,12Z" transform="translate(0 -1.663)" fill="#fff"/>
</svg>
