<svg xmlns="http://www.w3.org/2000/svg" xmlns:xlink="http://www.w3.org/1999/xlink" width="170" height="148" viewBox="0 0 170 148">
  <defs>
    <linearGradient id="linear-gradient" x1="-0.504" y1="2.766" x2="-0.501" y2="2.766" gradientUnits="objectBoundingBox">
      <stop offset="0" stop-color="#f39e12"/>
      <stop offset="1" stop-color="#f5af15"/>
    </linearGradient>
    <linearGradient id="linear-gradient-3" x1="-0.45" y1="1.476" x2="-0.448" y2="1.476" gradientUnits="objectBoundingBox">
      <stop offset="0" stop-color="#fcaf04"/>
      <stop offset="0.202" stop-color="#fcb204"/>
      <stop offset="0.367" stop-color="#fcbc05"/>
      <stop offset="0.517" stop-color="#fdcd07"/>
      <stop offset="0.659" stop-color="#fde50a"/>
      <stop offset="0.679" stop-color="#fee90b"/>
      <stop offset="1" stop-color="#fece08"/>
    </linearGradient>
  </defs>
  <g id="congrats" transform="translate(-0.41 -0.353)">
    <g id="Group_93900" data-name="Group 93900" transform="translate(13.714 9.973)">
      <g id="Group_93889" data-name="Group 93889">
        <ellipse id="Ellipse_2933" data-name="Ellipse 2933" cx="69.5" cy="69" rx="69.5" ry="69" transform="translate(-0.302 0.379)" fill="rgba(206,206,206,0.13)"/>
      </g>
    </g>
    <ellipse id="Ellipse_2934" data-name="Ellipse 2934" cx="3" cy="3.5" rx="3" ry="3.5" transform="translate(0.41 28.353)" fill="rgba(206,206,206,0.13)"/>
    <circle id="Ellipse_2935" data-name="Ellipse 2935" cx="11.5" cy="11.5" r="11.5" transform="translate(147.41 0.353)" fill="rgba(206,206,206,0.13)"/>
    <g id="trophy" transform="translate(34.412 6.234)">
      <g id="Group_4511" data-name="Group 4511" transform="translate(0 0)">
        <path id="Path_1007" data-name="Path 1007" d="M57.37,226.605a6.141,6.141,0,0,1-.727-.043,6.061,6.061,0,0,1-4.889-3.788,1.851,1.851,0,0,1,3.383-1.5,2.434,2.434,0,0,0,1.946,1.617,3.176,3.176,0,0,0,3.394-3.994,2.784,2.784,0,0,0-1.644-1.909c-3.207-1.41-6.861-.059-11.091,1.5-7.662,2.833-17.2,6.358-27.8-6.247l-4.391-5.22a5.134,5.134,0,0,1,.634-7.242,11.367,11.367,0,0,1,10.3-2.244l2.155.592a3.615,3.615,0,0,0,3.284-.72l5.848-4.919a1.851,1.851,0,0,1,2.383,2.833l-5.848,4.919a7.319,7.319,0,0,1-6.647,1.456l-2.155-.592a7.665,7.665,0,0,0-6.946,1.513,1.433,1.433,0,0,0-.177,2.02l4.391,5.22c8.926,10.613,16.094,7.963,23.682,5.157,4.566-1.688,9.287-3.434,13.864-1.422a6.454,6.454,0,0,1,3.741,4.381,6.985,6.985,0,0,1-1.2,5.952A7.1,7.1,0,0,1,57.37,226.605Z" transform="translate(-14.345 -145.29)" fill="url(#linear-gradient)"/>
        <path id="Path_1008" data-name="Path 1008" d="M258.29,52.087a7.009,7.009,0,0,1-2.855-.6,6.454,6.454,0,0,1-3.688-4.426c-1.212-4.851,1.3-9.21,3.738-13.426C259.53,26.623,263.35,20,254.394,9.417l-4.406-5.208a1.432,1.432,0,0,0-2.021-.166,7.665,7.665,0,0,0-2.662,6.592l.22,2.224a7.318,7.318,0,0,1-2.556,6.306L237.135,24.1a1.851,1.851,0,0,1-2.391-2.826l5.834-4.936a3.615,3.615,0,0,0,1.263-3.116L241.621,11a11.368,11.368,0,0,1,3.948-9.776,5.134,5.134,0,0,1,7.245.6l4.406,5.208c10.638,12.574,5.556,21.379,1.472,28.454-2.255,3.906-4.2,7.28-3.352,10.679a2.783,2.783,0,0,0,1.6,1.942,3.176,3.176,0,0,0,4.509-2.672,2.436,2.436,0,0,0-1.266-2.191,1.851,1.851,0,1,1,2.053-3.081,6.061,6.061,0,0,1,2.91,5.458,7.051,7.051,0,0,1-3.644,5.682A6.884,6.884,0,0,1,258.29,52.087Z" transform="translate(-180.581 0)" fill="url(#linear-gradient)"/>
      </g>
      <path id="Path_1009" data-name="Path 1009" d="M146.322,338.189l-11.643.837-10.95,11.243a1.411,1.411,0,0,1-1.011.426H83.686a1.411,1.411,0,0,1-.86-2.529l35.742-27.482L130.06,301.53a5.671,5.671,0,0,1,8.965-1l21.564,16.52a6.581,6.581,0,0,1,.421,10.1l-9.064,8.228A11.346,11.346,0,0,1,146.322,338.189Z" transform="translate(-65.733 -226.024)" fill="#fed9a8"/>
      <path id="Path_1010" data-name="Path 1010" d="M241.174,361.284l-5.272-4.039a6.569,6.569,0,0,1-1.957,6.485l-9.064,8.228a11.347,11.347,0,0,1-5.625,2.814l-11.643.837L188.8,394.927H203.3a1.41,1.41,0,0,0,1.011-.426l10.951-11.243,11.643-.837a11.348,11.348,0,0,0,5.625-2.814l9.064-8.228A6.58,6.58,0,0,0,241.174,361.284Z" transform="translate(-146.318 -270.256)" fill="#f4c28c"/>
      <path id="Path_1011" data-name="Path 1011" d="M326.645,331.84l2.176,2.341a3.994,3.994,0,0,1-3.369-1.241l-1.98-2.13A3.455,3.455,0,0,1,326.645,331.84Z" transform="translate(-248.2 -250.214)" fill="#e8d06b"/>
      <path id="Path_1012" data-name="Path 1012" d="M295.439,279.992l-13.824,11.627-36.446-49.848,7.175-6.034Z" transform="translate(-188.963 -178.335)" fill="#fece08"/>
      <path id="Path_1013" data-name="Path 1013" d="M65,73.1,76.914,87.265c8.446,10.043,21.753,14.977,35.847,13.294l8.357-1,2.416-8.062c4.074-13.6,1.494-27.552-6.953-37.595L104.67,39.741Z" transform="translate(-52.668 -30.064)" fill="url(#linear-gradient-3)"/>
      <path id="Path_1014" data-name="Path 1014" d="M213.382,53.9,201.471,39.742,192.962,46.9,205.52,61.765c8.446,10.043,11.027,24,6.953,37.595l-.265.883,5.71-.682,2.416-8.062C224.409,77.9,221.828,63.947,213.382,53.9Z" transform="translate(-149.469 -30.065)" fill="#f7bc14"/>
      <path id="Path_1015" data-name="Path 1015" d="M95.146,27.9,52.564,63.71a1.468,1.468,0,0,1-2.068-.178l-2.695-3.2a1.468,1.468,0,0,1,.178-2.068L90.562,22.447a1.468,1.468,0,0,1,2.068.178l2.695,3.2A1.467,1.467,0,0,1,95.146,27.9Z" transform="translate(-39.395 -16.721)" stroke="rgba(0,0,0,0)" stroke-miterlimit="10" stroke-width="1" fill="url(#linear-gradient-3)"/>
      <path id="Path_1016" data-name="Path 1016" d="M205.871,25.83l-2.695-3.2a1.468,1.468,0,0,0-2.068-.178l-7.523,6.327,4.584,5.45,7.523-6.327A1.467,1.467,0,0,0,205.871,25.83Z" transform="translate(-149.941 -16.721)" stroke="rgba(0,0,0,0)" stroke-miterlimit="10" stroke-width="1" fill="url(#linear-gradient-3)"/>
      <path id="Path_1018" data-name="Path 1018" d="M387.8,383.307l-25.967,21.84a2.411,2.411,0,0,1-3.605-.582l-4.292-6.98a2.41,2.41,0,0,1,.5-3.107l24.118-20.284a2.411,2.411,0,0,1,3.148.038l6.142,5.425A2.41,2.41,0,0,1,387.8,383.307Z" transform="translate(-270.979 -282.649)" stroke="rgba(0,0,0,0)" stroke-miterlimit="10" stroke-width="1" fill="url(#linear-gradient-3)"/>
      <path id="Path_1019" data-name="Path 1019" d="M443.585,379.654l-6.142-5.425a2.411,2.411,0,0,0-3.148-.038l-7.037,5.918,9.795,8.652,6.487-5.456A2.411,2.411,0,0,0,443.585,379.654Z" transform="translate(-326.715 -282.648)" stroke="rgba(0,0,0,0)" stroke-miterlimit="10" stroke-width="1" fill="url(#linear-gradient-3)"/>
      <path id="Path_1020" data-name="Path 1020" d="M382.36,372.38h0a4.68,4.68,0,0,0,6.615.245l5.858-5.442a4.679,4.679,0,0,0,.244-6.612h0a4.68,4.68,0,0,0-6.615-.245l-5.858,5.442A4.679,4.679,0,0,0,382.36,372.38Z" transform="translate(-291.803 -271.64)" fill="#f4c28c"/>
      <path id="Path_1021" data-name="Path 1021" d="M382.6,365.767l5.858-5.442a4.68,4.68,0,0,1,6.615.245h0a4.671,4.671,0,0,1,1.189,3.93,4.68,4.68,0,0,0-6.215.137l-5.858,5.442a4.659,4.659,0,0,0-1.434,2.683,4.73,4.73,0,0,1-.4-.381h0A4.68,4.68,0,0,1,382.6,365.767Z" transform="translate(-291.803 -271.64)" fill="#fed9a8"/>
      <path id="Path_1022" data-name="Path 1022" d="M363.028,337.629h0a4.75,4.75,0,0,0,6.714.248l5.755-5.346a4.75,4.75,0,0,0,.248-6.712h0a4.75,4.75,0,0,0-6.715-.248l-5.755,5.346A4.75,4.75,0,0,0,363.028,337.629Z" transform="translate(-277.164 -245.334)" fill="#f4c28c"/>
      <path id="Path_1023" data-name="Path 1023" d="M363.276,330.916l5.755-5.346a4.75,4.75,0,0,1,6.715.248h0a4.741,4.741,0,0,1,1.215,3.939,4.75,4.75,0,0,0-6.347.107l-5.755,5.346a4.729,4.729,0,0,0-1.463,2.774,4.754,4.754,0,0,1-.367-.355h0A4.75,4.75,0,0,1,363.276,330.916Z" transform="translate(-277.164 -245.333)" fill="#fed9a8"/>
      <path id="Path_1024" data-name="Path 1024" d="M336.351,309.284h0a4.75,4.75,0,0,0,6.715.248l5.755-5.346a4.75,4.75,0,0,0,.248-6.712h0a4.75,4.75,0,0,0-6.714-.248l-5.755,5.346A4.75,4.75,0,0,0,336.351,309.284Z" transform="translate(-256.983 -223.891)" fill="#f4c28c"/>
      <path id="Path_1025" data-name="Path 1025" d="M336.6,302.572l5.755-5.346a4.75,4.75,0,0,1,6.714.248h0a4.8,4.8,0,0,1,.342.413,4.729,4.729,0,0,0-2.9,1.257l-5.755,5.346a4.75,4.75,0,0,0-.59,6.3,4.74,4.74,0,0,1-3.817-1.506h0A4.75,4.75,0,0,1,336.6,302.572Z" transform="translate(-256.983 -223.891)" fill="#fed9a8"/>
      <path id="Path_1026" data-name="Path 1026" d="M310.66,279.878h0a4.75,4.75,0,0,0,6.714.248l5.755-5.346a4.75,4.75,0,0,0,.248-6.712h0a4.75,4.75,0,0,0-6.715-.248l-5.755,5.346A4.75,4.75,0,0,0,310.66,279.878Z" transform="translate(-237.547 -201.645)" fill="#f4c28c"/>
      <g id="Group_4512" data-name="Group 4512" transform="translate(52.836 64.905)">
        <path id="Path_1027" data-name="Path 1027" d="M310.908,273.166l5.755-5.346a4.75,4.75,0,0,1,6.714.248h0A4.741,4.741,0,0,1,324.593,272a4.75,4.75,0,0,0-6.351.1l-5.755,5.346a4.729,4.729,0,0,0-1.464,2.778,4.791,4.791,0,0,1-.364-.352h0A4.751,4.751,0,0,1,310.908,273.166Z" transform="translate(-290.383 -266.55)" fill="#fed9a8"/>
        <path id="Path_1028" data-name="Path 1028" d="M262.6,286.869l-1.067.992a4.1,4.1,0,0,1-5.788-.133l-2.687-2.89a3.531,3.531,0,0,0-5.007-.1h0c.809,12.515-16.722,14.922-16.722,14.922l7.451-18.328a8.8,8.8,0,0,1,2.311-3.6l5.292-4.981a6.289,6.289,0,0,1,8.915.172l7.592,8.154A4.1,4.1,0,0,1,262.6,286.869Z" transform="translate(-231.331 -269.905)" fill="#fed9a8"/>
      </g>
    </g>
  </g>
</svg>
