<svg xmlns="http://www.w3.org/2000/svg" width="11.131" height="9.195" viewBox="0 0 11.131 9.195">
  <path id="email" d="M10.521,3H1.81A1.21,1.21,0,0,0,.6,4.21v6.775A1.21,1.21,0,0,0,1.81,12.2h8.711a1.21,1.21,0,0,0,1.21-1.21V4.21A1.21,1.21,0,0,0,10.521,3ZM4.472,8.666,2.394,10.743a.242.242,0,1,1-.342-.342L4.13,8.324a.242.242,0,1,1,.342.342Zm5.822,2.092a.242.242,0,0,1-.342,0L7.859,8.666A.242.242,0,1,1,8.2,8.324l2.092,2.092a.242.242,0,0,1,0,.342Zm-.015-5.964L6.337,8.737a.242.242,0,0,1-.342,0L2.052,4.794a.242.242,0,1,1,.342-.342L6.166,8.223,9.937,4.452a.242.242,0,1,1,.342.342Z" transform="translate(-0.6 -3)" fill="#fff"/>
</svg>
