<svg xmlns="http://www.w3.org/2000/svg" width="12" height="10" viewBox="0 0 12 10">
  <g id="filter" transform="translate(-1639 -342)">
    <path id="Path_123231" data-name="Path 123231" d="M11,1H1A1,1,0,0,0,1,3H11a1,1,0,0,0,0-2Z" transform="translate(1639 341)" fill="#fff"/>
    <path id="Path_123232" data-name="Path 123232" d="M9,5H3A1,1,0,0,0,3,7H9A1,1,0,0,0,9,5Z" transform="translate(1639 341)" fill="#fff"/>
    <path id="Path_123233" data-name="Path 123233" d="M7,9H5a1,1,0,0,0,0,2H7A1,1,0,0,0,7,9Z" transform="translate(1639 341)" fill="#fff"/>
  </g>
</svg>
