<svg xmlns="http://www.w3.org/2000/svg" xmlns:xlink="http://www.w3.org/1999/xlink" width="137" height="119" viewBox="0 0 137 119">
  <defs>
    <clipPath id="clip-path">
      <rect id="Rectangle_5189" data-name="Rectangle 5189" width="72.073" height="30.79" fill="none"/>
    </clipPath>
    <clipPath id="clip-path-2">
      <rect id="Rectangle_5181" data-name="Rectangle 5181" width="16.444" height="17.194" fill="none"/>
    </clipPath>
    <clipPath id="clip-path-3">
      <rect id="Rectangle_5182" data-name="Rectangle 5182" width="16.828" height="17.32" fill="none"/>
    </clipPath>
    <clipPath id="clip-path-4">
      <rect id="Rectangle_5183" data-name="Rectangle 5183" width="36.903" height="20.96" fill="none"/>
    </clipPath>
    <clipPath id="clip-path-5">
      <rect id="Rectangle_5185" data-name="Rectangle 5185" width="31.003" height="16.373" fill="none"/>
    </clipPath>
    <clipPath id="clip-path-6">
      <rect id="Rectangle_5186" data-name="Rectangle 5186" width="16.186" height="10.877" fill="none"/>
    </clipPath>
    <clipPath id="clip-path-7">
      <rect id="Rectangle_5187" data-name="Rectangle 5187" width="6.128" height="18.367" fill="none"/>
    </clipPath>
    <clipPath id="clip-path-8">
      <rect id="Rectangle_5194" data-name="Rectangle 5194" width="54.213" height="28.003" fill="none"/>
    </clipPath>
    <clipPath id="clip-path-10">
      <rect id="Rectangle_5191" data-name="Rectangle 5191" width="5.401" height="18.245" fill="none"/>
    </clipPath>
    <clipPath id="clip-path-11">
      <rect id="Rectangle_5192" data-name="Rectangle 5192" width="6.983" height="10.413" fill="none"/>
    </clipPath>
    <clipPath id="clip-path-12">
      <rect id="Rectangle_5198" data-name="Rectangle 5198" width="77.75" height="39.549" fill="none"/>
    </clipPath>
    <clipPath id="clip-path-14">
      <rect id="Rectangle_5195" data-name="Rectangle 5195" width="22.433" height="23.066" fill="none"/>
    </clipPath>
    <clipPath id="clip-path-15">
      <rect id="Rectangle_5196" data-name="Rectangle 5196" width="7.623" height="20.436" fill="none"/>
    </clipPath>
  </defs>
  <g id="how-much" transform="translate(-857.953 -525.483)">
    <g id="Group_93900" data-name="Group 93900" transform="translate(868.953 533.483)">
      <g id="Group_93889" data-name="Group 93889">
        <circle id="Ellipse_2933" data-name="Ellipse 2933" cx="55.5" cy="55.5" r="55.5" fill="rgba(206,206,206,0.13)"/>
      </g>
    </g>
    <circle id="Ellipse_2934" data-name="Ellipse 2934" cx="2.5" cy="2.5" r="2.5" transform="translate(857.953 548.483)" fill="rgba(206,206,206,0.13)"/>
    <circle id="Ellipse_2935" data-name="Ellipse 2935" cx="9.5" cy="9.5" r="9.5" transform="translate(975.953 525.483)" fill="rgba(206,206,206,0.13)"/>
    <g id="Group_94227" data-name="Group 94227" transform="translate(909.141 561.605)">
      <g id="Group_94226" data-name="Group 94226" clip-path="url(#clip-path)">
        <path id="Path_123140" data-name="Path 123140" d="M152.283,80.354s.873,1.083,1.714,1.133h0a.921.921,0,0,0,.3-.031,1.443,1.443,0,0,0,.267-.1,2.123,2.123,0,0,0,1.072-1.549,1.332,1.332,0,0,0-.027-.527c-.208-.752-3.423-1.76-3.935-1.607-.193.057-.192.369-.1.766a6.942,6.942,0,0,0,.262.84c.162.438.346.853.445,1.079" transform="translate(-113.923 -57.882)" fill="#fb8862"/>
        <path id="Path_123141" data-name="Path 123141" d="M127.44,46.3a27.583,27.583,0,0,0,2.777,3.623.676.676,0,0,0,.7.191,4.9,4.9,0,0,0,.805-.31h0a1.63,1.63,0,0,0,.9-1.989c-.024-.132-.062-.3-.114-.486-.587-2.179-2.832-7.776-2.832-7.776a15.481,15.481,0,0,0,3.9-.729c.516-1.64-1.286-4.176-1.286-4.176s-4.559.911-6.33,3.443,1.49,8.21,1.49,8.21" transform="translate(-94.304 -25.824)" fill="#fb8862"/>
        <path id="Path_123142" data-name="Path 123142" d="M117.611,42.531a.848.848,0,0,0,.563.512,3.038,3.038,0,0,0,.564.1,1.271,1.271,0,0,0,1.5-1.024,4.714,4.714,0,0,0-.177-2.2,12.949,12.949,0,0,0-.922-2.321c.537-1.459-.192-4.748-.192-4.748a5.27,5.27,0,0,0,2.113-1.428,7.093,7.093,0,0,0,3.317-2.179s-1.171-2.511-1.213-2.746-4.554.081-6.02,2.8-1.995,8.168-1.995,8.168a37.543,37.543,0,0,1,2.463,5.06" transform="translate(-86.579 -19.708)" fill="#fb8862"/>
        <path id="Path_123143" data-name="Path 123143" d="M135.6,37.209a6.988,6.988,0,0,1-3.282,2.211,5,5,0,0,1-2.132,1.3l-.759-.643s.463.3,2.369-1.1a7.809,7.809,0,0,0,3.527-2.407Z" transform="translate(-97.31 -27.265)" fill="#fb8862"/>
        <path id="Path_123144" data-name="Path 123144" d="M136.954,85.262s.335.052,1.087,1a3.747,3.747,0,0,1,.824,1.369,8.317,8.317,0,0,1-1.911-2.364" transform="translate(-102.974 -63.553)" fill="#f9e4d3"/>
        <path id="Path_123145" data-name="Path 123145" d="M120.056,72.211l-4.2-1.173-.713-1.276,4.385,1.26Z" transform="translate(-86.577 -51.999)" fill="#fb8862"/>
        <path id="Path_123146" data-name="Path 123146" d="M135.379,41.544a3.606,3.606,0,0,0-1.633-1.521s1.169,1.332,1.141,1.952c0,0,.738-.044.492-.431" transform="translate(-100.562 -29.832)" fill="#fb8862"/>
        <path id="Path_123147" data-name="Path 123147" d="M148.976,33.951s.865,1.146-.033,1.766c0,0,1.534-.474,1.356-.877s-1.323-.889-1.323-.889" transform="translate(-111.989 -25.306)" fill="#fb8862"/>
        <path id="Path_123148" data-name="Path 123148" d="M148.73,40.042a.927.927,0,0,1,1.218.156,2.24,2.24,0,0,1,.356,1.608l1.594.136s-1.289-3.482-1.9-3.292-1.264,1.391-1.264,1.391" transform="translate(-111.829 -28.804)" fill="#fb8862"/>
        <path id="Path_123149" data-name="Path 123149" d="M132.818,74.71l.445,1.008s2.755.554,3.58,1.57.809,1.951.436,2.377h0a1.63,1.63,0,0,0,.9-1.989c-.024-.132-.062-.3-.113-.486a8.788,8.788,0,0,0-.71-1Z" transform="translate(-99.864 -55.687)" fill="#fb8862"/>
        <path id="Path_123150" data-name="Path 123150" d="M151.594,81.429a.839.839,0,0,0,.284.109,4.576,4.576,0,0,1,2.4.993c.664.76-.437,1.084-.524,1.108.036-.007.265-.055.564-.134a2.122,2.122,0,0,0,1.072-1.549c-.489-.165-3.347-1.129-4.063-1.367l-.139-.046a1.049,1.049,0,0,0,.4.886" transform="translate(-113.68 -60.035)" fill="#fb8862"/>
        <path id="Path_123151" data-name="Path 123151" d="M120.046,78.627s.445.147.952,1.249.295,1.554.295,1.554a9.157,9.157,0,0,1-1.247-2.8" transform="translate(-90.261 -58.607)" fill="#f9e4d3"/>
        <path id="Path_123152" data-name="Path 123152" d="M128.707,81.28a1.271,1.271,0,0,0,1.5-1.024,4.714,4.714,0,0,0-.177-2.2l0-.005-1.62-.453a1.918,1.918,0,0,1,1.2,1.324c.277,1.049-.07,2.324-.9,2.354" transform="translate(-96.548 -57.843)" fill="#fb8862"/>
        <path id="Path_123153" data-name="Path 123153" d="M105.178,25.954h0s-.392.957-1.195.72c-1.318-.419-3.8-1.056-5.271-.493a6.484,6.484,0,0,1,.462-.9c.7-1.218,2.079-4.149,2.079-4.149a44.487,44.487,0,0,1,4.3,3.244.492.492,0,0,0-.065.048,8.429,8.429,0,0,1-.313,1.526" transform="translate(-74.221 -15.755)" fill="#ffb97c"/>
        <path id="Path_123154" data-name="Path 123154" d="M96.022,49.4c.153-1.736.247-2.794.345-3.512v0s4.811.881,6.181,1.134a4.361,4.361,0,0,1-.39.539s-.781,4.691-2.535,5.634-4,.669-3.6-3.8" transform="translate(-72.164 -34.205)" fill="#ffb97c"/>
        <path id="Path_123155" data-name="Path 123155" d="M97.548,42.207a3.288,3.288,0,0,1,.287-1.256,5.4,5.4,0,0,0-.287,1.256" transform="translate(-73.344 -30.524)" fill="#fb8862"/>
        <path id="Path_123156" data-name="Path 123156" d="M97.552,36.936v0a5.4,5.4,0,0,1,.287-1.256h0c1.474-.563,3.953.075,5.271.493.8.237,1.195-.72,1.195-.72a8.428,8.428,0,0,0,.313-1.526.491.491,0,0,1,.065-.048c.16.149.3.29.413.419a15.8,15.8,0,0,1-.709,2.43c-.067.172-.139.345-.216.515a7.176,7.176,0,0,1-.438.832c-1.369-.253-6.18-1.134-6.18-1.134v0" transform="translate(-73.348 -25.251)" fill="#fb8862"/>
        <path id="Path_123157" data-name="Path 123157" d="M96,63.269a6.225,6.225,0,0,0,4.565,1.368l.176-.289a35.91,35.91,0,0,1-4.753-1.85s-.011.5.012.771" transform="translate(-72.167 -46.585)" fill="#fb8862"/>
        <path id="Path_123158" data-name="Path 123158" d="M38.528,13.112l-1.133,3.6L35.11,23.966l-2.217,7.04L.707,20.331,0,20.1l.928-2.945,2.237-7.105L5.636,2.2Z" transform="translate(0 -1.642)" fill="#00ab84"/>
        <path id="Path_123159" data-name="Path 123159" d="M35.543,33.355,4.144,23.064,9.23,6.721l31.4,10.292ZM4.871,22.679l30.3,9.93L39.9,17.4l-30.3-9.93Z" transform="translate(-3.116 -5.01)" fill="#fff"/>
        <g id="Group_94207" data-name="Group 94207" transform="translate(3.675 4.332)" opacity="0.2">
          <g id="Group_94206" data-name="Group 94206">
            <g id="Group_94205" data-name="Group 94205" clip-path="url(#clip-path-2)">
              <path id="Path_123160" data-name="Path 123160" d="M21.7,17.016l9.555,3.169a7.276,7.276,0,0,0-7.977,5.1,7.555,7.555,0,0,0,3.56,8.926L17.286,31.04a3.962,3.962,0,0,0-2.473-4.961l2.055-6.525A3.82,3.82,0,0,0,21.7,17.016" transform="translate(-14.813 -17.016)"/>
            </g>
          </g>
        </g>
        <g id="Group_94210" data-name="Group 94210" transform="translate(18.025 8.272)" opacity="0.2">
          <g id="Group_94209" data-name="Group 94209">
            <g id="Group_94208" data-name="Group 94208" clip-path="url(#clip-path-3)">
              <path id="Path_123161" data-name="Path 123161" d="M80.628,41.413a7.555,7.555,0,0,0-3.561-8.925l9.938,3.3a3.962,3.962,0,0,0,2.472,4.961l-2.055,6.526a3.82,3.82,0,0,0-4.834,2.537l-9.938-3.3a7.276,7.276,0,0,0,7.977-5.1" transform="translate(-72.651 -32.488)"/>
            </g>
          </g>
        </g>
        <path id="Path_123162" data-name="Path 123162" d="M67.654,48.413l-.2.649L66.356,48.7l.2-.649a2.017,2.017,0,0,1-.762-2.609l.087-.274,1.264.42-.114.362c-.2.624-.028.941.4,1.083s.743-.015.94-.639c.566-1.8-2.019-2.751-1.233-5.245.373-1.185,1.112-1.78,2.123-1.665l.2-.636,1.094.363-.2.636a2.029,2.029,0,0,1,.77,2.625l-.189.6-1.264-.42.216-.686c.2-.624,0-.937-.426-1.078s-.764-.006-.96.618c-.566,1.8,2.019,2.751,1.233,5.245-.369,1.172-1.08,1.763-2.082,1.665" transform="translate(-49.347 -28.954)" fill="#fff"/>
        <g id="Group_94213" data-name="Group 94213" transform="translate(0.707 8.404)" opacity="0.3">
          <g id="Group_94212" data-name="Group 94212">
            <g id="Group_94211" data-name="Group 94211" clip-path="url(#clip-path-4)">
              <path id="Path_123163" data-name="Path 123163" d="M39.751,35.9l-.215,3.771-2.285,7.255-2.217,7.04L2.847,43.292l.221-3.18,2.237-7.1Z" transform="translate(-2.847 -33.007)"/>
            </g>
          </g>
        </g>
        <path id="Path_123227" data-name="Path 123227" d="M.057.03,18.86,0,18.8,34.569l-18.8.034Z" transform="matrix(0.071, -0.997, 0.997, 0.071, 0.978, 28.324)" fill="#00ab84"/>
        <path id="Path_123164" data-name="Path 123164" d="M40.419,60.333l-32.878-2.4L8.729,40.817l32.878,2.4ZM8.159,57.379,39.883,59.7l1.106-15.928L9.265,41.452Z" transform="translate(-5.67 -30.424)" fill="#fff"/>
        <g id="Group_94216" data-name="Group 94216" transform="translate(3.402 11.964)" opacity="0.2">
          <g id="Group_94215" data-name="Group 94215">
            <g id="Group_94214" data-name="Group 94214" clip-path="url(#clip-path-5)">
              <path id="Path_123165" data-name="Path 123165" d="M18.291,46.99l10.016.732a7.509,7.509,0,0,0-1.02,14.7l-10.016-.732a3.908,3.908,0,0,0-3.557-4.21l.475-6.841a3.873,3.873,0,0,0,4.1-3.65" transform="translate(-13.714 -46.99)"/>
              <path id="Path_123166" data-name="Path 123166" d="M84.79,58.358a7.456,7.456,0,0,0-5.537-7.793l10.418.762a3.908,3.908,0,0,0,3.557,4.21l-.475,6.841a3.874,3.874,0,0,0-4.1,3.65l-10.418-.762a7.388,7.388,0,0,0,6.558-6.908" transform="translate(-62.224 -49.655)"/>
            </g>
          </g>
        </g>
        <path id="Path_123167" data-name="Path 123167" d="M68.406,59.624l.038-.681,1.148.067-.038.68c.983.268,1.449,1.083,1.38,2.326l-.016.288-1.326-.078.021-.379c.036-.655-.2-.918-.651-.944s-.715.208-.752.862C68.1,63.65,70.841,63.9,70.7,66.52c-.069,1.243-.637,2.011-1.643,2.162l-.037.668-1.148-.067.037-.668a2.005,2.005,0,0,1-1.392-2.34l.035-.628,1.326.078-.04.72c-.036.654.231.906.678.932s.74-.193.776-.847c.1-1.884-2.632-2.137-2.486-4.755.068-1.23.61-1.986,1.6-2.151" transform="translate(-50.005 -43.935)" fill="#fff"/>
        <g id="Group_94219" data-name="Group 94219" transform="translate(20.609 11.007)" opacity="0.3">
          <g id="Group_94218" data-name="Group 94218">
            <g id="Group_94217" data-name="Group 94217" clip-path="url(#clip-path-6)">
              <path id="Path_123168" data-name="Path 123168" d="M99.252,44.256,85.23,43.231C83.9,44.015,82.5,45.355,83.3,47.3c1.388,3.4,15.27,6.807,15.27,6.807.049-.638.049-.638.05-.719Z" transform="translate(-83.066 -43.231)"/>
            </g>
          </g>
        </g>
        <path id="Path_123169" data-name="Path 123169" d="M124.015,22.76a7.275,7.275,0,0,0-1.164.428c-.486.23-.92.416-1.306.567a7.036,7.036,0,0,1-2.506.614h0l-.354-.049h0a47.392,47.392,0,0,1-9.9-2.289c-.954-.441-2.338-.988-3.806-1.519l-.008,0-.024-.008a55.547,55.547,0,0,0-5.821-1.807,59.367,59.367,0,0,1-6.791-2.315s-3.375-1.04-2.461-3.184a3.6,3.6,0,0,1,1.7-1.958,5.632,5.632,0,0,1,3.714-.114c.9.2,1.995.533,3.013.87,1.75.578,3.284,1.176,3.284,1.176.121-.017.272-.032.446-.046.665-.053,1.66-.083,2.562-.1.928-.018,1.76-.024,2.034-.025h.095c-1.189-4.3-3.829-5.613-4.073-5.727l-.018-.008A5.191,5.191,0,0,1,99.2,9.045l-.07-.055-.323-.251h0l-.084-.065L94.488,5.382c.646-2.172.79-2.9,4.276-3.424q.276-.043.582-.082c.267-.036.55-.071.853-.1,4.59-.522,9.816-2.126,11.593-1.7a1.291,1.291,0,0,1,.305.112c.24.131.693.421,1.3.824.418.279.909.613,1.45.984L122.751,19.9l.021.047.607,1.374Z" transform="translate(-67.455 0)" fill="#ffb97c"/>
        <path id="Path_123170" data-name="Path 123170" d="M97,49.114a9.852,9.852,0,0,0-1.058,3.632s-2.871-.729-3.143-2.024c-.444-2.115,2.419-2.766,4.2-1.608" transform="translate(-69.741 -36.186)" fill="#f8e8dc"/>
        <path id="Path_123171" data-name="Path 123171" d="M131.027,56.883s.752,2.174-.726,3.488c0,0,2.372-.694.726-3.488" transform="translate(-97.972 -42.399)" fill="#fb8862"/>
        <path id="Path_123172" data-name="Path 123172" d="M123.412,23.085a5.281,5.281,0,0,0-.905-1.468,2.672,2.672,0,0,1,1.26,1.155,3.859,3.859,0,0,0,3.047-1.572,4.315,4.315,0,0,0-.551-1.732,3.825,3.825,0,0,1,.99,1.349,8.206,8.206,0,0,1,3.667,3.022,8.024,8.024,0,0,1,2.072-3.477,8.114,8.114,0,0,0-1.165,4.55c.037.037.075.073.113.108a7.1,7.1,0,0,1,1.407-1.935.02.02,0,0,1,.032.024,4.5,4.5,0,0,0-.58,2.486,2.919,2.919,0,0,1,1.1,1.063,10.012,10.012,0,0,1,3.039.935c-.689-.01-1.753-.006-2.735,0a8.44,8.44,0,0,1-2.4.024h-.011v0a1.973,1.973,0,0,1-.419-.106c.211-.048.326-.075.378-.088,0,0-.378.09-.378.088h-.089c-1.248-4.511-4-5.735-4-5.735a5.192,5.192,0,0,1-3.421,1.782l-.071-.055a.642.642,0,0,1-.267,0,2,2,0,0,0-.056-.251l-.084-.065.031-.1" transform="translate(-92.112 -14.51)" fill="#fb8862"/>
        <path id="Path_123173" data-name="Path 123173" d="M138.054,52.756a2.351,2.351,0,0,0-.07-1.216c-.174.013-.326.029-.447.045a3.288,3.288,0,0,1,.517,1.171" transform="translate(-103.413 -38.417)" fill="#fb8862"/>
        <path id="Path_123174" data-name="Path 123174" d="M223.252,93.278h0" transform="translate(-167.855 -69.527)" fill="#fb8862"/>
        <path id="Path_123175" data-name="Path 123175" d="M211.683,15.892V30.279l-4.845-1.625h0l-1.305-.438-.017-.005a2.527,2.527,0,0,0-.543-.082,12.258,12.258,0,0,0-2.651.141,8.346,8.346,0,0,0-2.763.889,8.765,8.765,0,0,1-4.363,1.04,28.868,28.868,0,0,1,2.974-2.058l.116-.359.237-.736q-.186-.281-.377-.581c-2.833-4.408-6.757-11.683-7.143-18.64a89.917,89.917,0,0,0,10.614,5.96q.528.235,1.037.442l1.137.21,2.633.486Z" transform="translate(-143.609 -5.831)" fill="#ffb97c"/>
        <path id="Path_123176" data-name="Path 123176" d="M239.8,34.277c-1.238,3.442-1.432,10.1-1.451,13.207a12.258,12.258,0,0,0-2.651.141c-1-5.77.7-11.608,1.469-13.834Z" transform="translate(-176.989 -25.187)" fill="#fb8862"/>
        <path id="Path_123177" data-name="Path 123177" d="M249.213,32.911a29.649,29.649,0,0,1,1.569,6.71c.595,4.362.811,10.738.811,10.738l-7.047-1.172-2.963-.572a24.7,24.7,0,0,1-.7-9.394,33.708,33.708,0,0,1,2.1-8.334h0l3.861.57Z" transform="translate(-180.994 -23.022)" fill="#ee4a49"/>
        <g id="Group_94222" data-name="Group 94222" transform="translate(59.725 7.864)" opacity="0.2">
          <g id="Group_94221" data-name="Group 94221">
            <g id="Group_94220" data-name="Group 94220" clip-path="url(#clip-path-7)">
              <path id="Path_123178" data-name="Path 123178" d="M244.892,49.254l-3.31-.639a24.7,24.7,0,0,1-.7-9.394,33.708,33.708,0,0,1,2.1-8.334h0l3.861.57c-3.166,6.445-2.409,14.131-1.954,17.8" transform="translate(-240.718 -30.887)"/>
            </g>
          </g>
        </g>
      </g>
    </g>
    <g id="Group_94239" data-name="Group 94239" transform="translate(868.953 574.982)">
      <g id="Group_94238" data-name="Group 94238" transform="translate(0)" clip-path="url(#clip-path-8)">
        <g id="Group_94237" data-name="Group 94237" transform="translate(0 0)">
          <g id="Group_94236" data-name="Group 94236" clip-path="url(#clip-path-8)">
            <path id="Path_123180" data-name="Path 123180" d="M109.638,80.354s-.9,1.083-1.759,1.133h0a.969.969,0,0,1-.308-.031,1.5,1.5,0,0,1-.274-.1,2.124,2.124,0,0,1-1.1-1.549,1.3,1.3,0,0,1,.028-.527c.214-.752,3.513-1.76,4.038-1.607.2.057.2.369.1.766a6.818,6.818,0,0,1-.269.84c-.167.438-.355.853-.457,1.079" transform="translate(-79.145 -57.882)" fill="#fb8862"/>
            <path id="Path_123181" data-name="Path 123181" d="M122.134,46.3a27.689,27.689,0,0,1-2.85,3.623.706.706,0,0,1-.716.191,5.107,5.107,0,0,1-.826-.31h0a1.618,1.618,0,0,1-.919-1.989c.024-.132.063-.3.116-.486.6-2.179,2.907-7.776,2.907-7.776a16.252,16.252,0,0,1-4-.729c-.529-1.64,1.32-4.176,1.32-4.176s4.679.911,6.5,3.443-1.529,8.21-1.529,8.21" transform="translate(-86.28 -25.824)" fill="#fb8862"/>
            <path id="Path_123182" data-name="Path 123182" d="M128.971,42.531a.862.862,0,0,1-.578.512,3.191,3.191,0,0,1-.578.1,1.3,1.3,0,0,1-1.538-1.024,4.6,4.6,0,0,1,.181-2.2A12.744,12.744,0,0,1,127.4,37.6c-.551-1.459.2-4.748.2-4.748a5.4,5.4,0,0,1-2.168-1.428,7.281,7.281,0,0,1-3.4-2.179s1.2-2.511,1.244-2.746,4.673.081,6.178,2.8,2.047,8.168,2.047,8.168a37.1,37.1,0,0,0-2.527,5.06" transform="translate(-90.958 -19.708)" fill="#fb8862"/>
            <path id="Path_123183" data-name="Path 123183" d="M120.06,37.209a7.17,7.17,0,0,0,3.368,2.211,5.15,5.15,0,0,0,2.188,1.3l.779-.643s-.475.3-2.431-1.1a8.039,8.039,0,0,1-3.619-2.407Z" transform="translate(-89.49 -27.265)" fill="#fb8862"/>
            <path id="Path_123184" data-name="Path 123184" d="M131.67,85.262s-.344.052-1.115,1a3.72,3.72,0,0,0-.846,1.369,8.369,8.369,0,0,0,1.961-2.364" transform="translate(-96.682 -63.553)" fill="#f9e4d3"/>
            <path id="Path_123185" data-name="Path 123185" d="M139.43,72.211l4.307-1.173.732-1.276-4.5,1.26Z" transform="translate(-103.928 -51.999)" fill="#fb8862"/>
            <path id="Path_123186" data-name="Path 123186" d="M133.888,41.544a3.653,3.653,0,0,1,1.676-1.521s-1.2,1.332-1.171,1.952c0,0-.757-.044-.5-.431" transform="translate(-99.759 -29.832)" fill="#fb8862"/>
            <path id="Path_123187" data-name="Path 123187" d="M121.273,33.95s-.888,1.146.034,1.766c0,0-1.574-.474-1.392-.877s1.358-.889,1.358-.889" transform="translate(-89.372 -25.306)" fill="#fb8862"/>
            <path id="Path_123188" data-name="Path 123188" d="M116.121,40.042a.97.97,0,0,0-1.25.156,2.193,2.193,0,0,0-.365,1.608l-1.636.136s1.322-3.482,1.953-3.292,1.3,1.391,1.3,1.391" transform="translate(-84.132 -28.804)" fill="#fb8862"/>
            <path id="Path_123189" data-name="Path 123189" d="M125.305,74.71l-.457,1.008s-2.827.554-3.674,1.57-.83,1.951-.448,2.377h0a1.618,1.618,0,0,1-.919-1.989c.024-.132.063-.3.116-.486a8.8,8.8,0,0,1,.728-1Z" transform="translate(-89.264 -55.687)" fill="#fb8862"/>
            <path id="Path_123190" data-name="Path 123190" d="M110.137,81.429a.874.874,0,0,1-.291.109,4.769,4.769,0,0,0-2.468.993c-.681.76.449,1.084.537,1.108-.037-.007-.272-.055-.578-.134a2.123,2.123,0,0,1-1.1-1.549c.5-.165,3.434-1.129,4.169-1.367l.143-.046a1.035,1.035,0,0,1-.412.886" transform="translate(-79.187 -60.035)" fill="#fb8862"/>
            <path id="Path_123191" data-name="Path 123191" d="M150.44,78.627s-.457.147-.977,1.249-.3,1.554-.3,1.554a9.052,9.052,0,0,0,1.28-2.8" transform="translate(-111.147 -58.607)" fill="#f9e4d3"/>
            <path id="Path_123192" data-name="Path 123192" d="M140.045,81.28a1.3,1.3,0,0,1-1.538-1.024,4.6,4.6,0,0,1,.182-2.2l0-.005,1.662-.453a1.943,1.943,0,0,0-1.236,1.324c-.284,1.049.072,2.324.928,2.354" transform="translate(-103.189 -57.843)" fill="#fb8862"/>
            <path id="Path_123193" data-name="Path 123193" d="M148.461,25.954h0s.4.957,1.226.72c1.353-.419,3.9-1.056,5.409-.493a6.425,6.425,0,0,0-.474-.9c-.721-1.218-2.133-4.149-2.133-4.149a45.588,45.588,0,0,0-4.415,3.244.5.5,0,0,1,.066.048,8.236,8.236,0,0,0,.321,1.526" transform="translate(-110.371 -15.755)" fill="#ffb97c"/>
            <path id="Path_123194" data-name="Path 123194" d="M158.6,49.4c-.157-1.736-.253-2.794-.354-3.512v0s-4.937.881-6.343,1.134a4.363,4.363,0,0,0,.4.539s.8,4.691,2.6,5.634,4.1.669,3.695-3.8" transform="translate(-113.225 -34.205)" fill="#ffb97c"/>
            <path id="Path_123195" data-name="Path 123195" d="M175.951,42.207a3.222,3.222,0,0,0-.295-1.256,5.283,5.283,0,0,1,.295,1.256" transform="translate(-130.93 -30.524)" fill="#fb8862"/>
            <path id="Path_123196" data-name="Path 123196" d="M154.151,36.936v0a5.279,5.279,0,0,0-.295-1.256h0c-1.512-.563-4.057.075-5.409.493-.823.237-1.226-.72-1.226-.72a8.236,8.236,0,0,1-.321-1.526.5.5,0,0,0-.066-.048c-.164.149-.307.29-.424.419a15.486,15.486,0,0,0,.728,2.43c.069.172.143.345.222.515a7.114,7.114,0,0,0,.449.832c1.405-.253,6.343-1.134,6.343-1.134v0" transform="translate(-109.13 -25.251)" fill="#fb8862"/>
            <path id="Path_123197" data-name="Path 123197" d="M164.085,63.268a6.49,6.49,0,0,1-4.684,1.368l-.181-.289A37.452,37.452,0,0,0,164.1,62.5s.011.5-.012.771" transform="translate(-118.679 -46.584)" fill="#fb8862"/>
            <path id="Path_123198" data-name="Path 123198" d="M166.538,52.45a7.922,7.922,0,0,1-8.608,8.163,7.755,7.755,0,0,1-1.6-.308,7.92,7.92,0,0,1,2.021-15.5,7.883,7.883,0,0,1,5.056,1.6,7.921,7.921,0,0,1,2.623,3.5,7.776,7.776,0,0,1,.418,1.577,7.975,7.975,0,0,1,.092.963" transform="translate(-112.33 -33.395)" fill="#f79647"/>
            <path id="Path_123199" data-name="Path 123199" d="M166.36,55.413a7.922,7.922,0,0,1-8.609,8.163,7.773,7.773,0,0,1-1.6-.308,7.94,7.94,0,0,1-4.5-3.513,7.943,7.943,0,0,1-1.084-4.869,7.923,7.923,0,0,1,11.471-6.261,7.78,7.78,0,0,1,1.192.748,7.921,7.921,0,0,1,2.623,3.5,7.752,7.752,0,0,1,.418,1.577,7.926,7.926,0,0,1,.092.963" transform="translate(-112.197 -35.604)" fill="#ffec39"/>
            <path id="Path_123200" data-name="Path 123200" d="M166.517,51.889l-10.751,11.52a7.863,7.863,0,0,1-.828-1.138l10.387-11.13a7.822,7.822,0,0,1,1.192.748" transform="translate(-115.488 -38.119)" fill="#ffeccb"/>
            <path id="Path_123201" data-name="Path 123201" d="M182.734,69.4l-8.517,9.126a7.758,7.758,0,0,1-1.6-.308l9.7-10.4a7.755,7.755,0,0,1,.418,1.577" transform="translate(-128.664 -50.555)" fill="#ffeccb"/>
            <path id="Path_123202" data-name="Path 123202" d="M159.075,47.791l-8.464,9.07a7.757,7.757,0,0,1-.083-.9,7.869,7.869,0,0,1,.035-1.074l6.538-7.006a7.943,7.943,0,0,1,1.973-.089" transform="translate(-112.197 -35.604)" fill="#ffeccb"/>
            <path id="Path_123203" data-name="Path 123203" d="M162.035,65.813a6.774,6.774,0,1,1,6.536-7,6.781,6.781,0,0,1-6.536,7" transform="translate(-115.555 -38.961)" fill="#ebae42"/>
            <path id="Path_123204" data-name="Path 123204" d="M175.671,60.3l-.022-.642,1.111-.038.022.642c.97.164,1.489.888,1.53,2.061l.009.271-1.284.045-.012-.358c-.021-.617-.276-.843-.708-.828s-.671.258-.65.875c.061,1.778,2.718,1.772,2.8,4.241a1.9,1.9,0,0,1-1.4,2.174l.022.63-1.111.038-.022-.63c-.982-.164-1.5-.9-1.542-2.073l-.021-.592,1.284-.044.023.679c.021.617.3.83.733.815s.7-.246.674-.864c-.061-1.778-2.718-1.772-2.8-4.241a1.884,1.884,0,0,1,1.359-2.16" transform="translate(-129.927 -44.44)" fill="#fff"/>
            <path id="Path_123205" data-name="Path 123205" d="M191.247,44.166c-2.746.325-3.01.588-3.335,3.335-.325-2.746-.588-3.01-3.335-3.335,2.746-.325,3.01-.588,3.335-3.335.325,2.746.589,3.01,3.335,3.335" transform="translate(-137.58 -30.435)" fill="#fff"/>
            <path id="Path_123206" data-name="Path 123206" d="M46.4,22.76a7.592,7.592,0,0,1,1.194.428c.5.23.944.416,1.341.567a7.38,7.38,0,0,0,2.572.614h0l.364-.049h0a49.7,49.7,0,0,0,10.159-2.289c.979-.441,2.4-.988,3.906-1.519l.009,0,.024-.008a58.07,58.07,0,0,1,5.974-1.807,62.014,62.014,0,0,0,6.969-2.315s3.463-1.04,2.525-3.184A3.635,3.635,0,0,0,79.7,11.237a5.922,5.922,0,0,0-3.811-.114c-.928.2-2.047.533-3.092.87-1.8.578-3.37,1.177-3.37,1.177-.124-.017-.28-.032-.458-.046-.682-.053-1.7-.083-2.629-.1C65.387,13,64.534,13,64.253,13h-.1c1.221-4.3,3.93-5.613,4.18-5.727l.018-.008a5.389,5.389,0,0,0,3.512,1.783l.072-.055.332-.251h0l.087-.065L76.7,5.382c-.663-2.172-.811-2.9-4.389-3.424q-.283-.042-.6-.082c-.274-.036-.565-.071-.875-.1-4.71-.522-10.074-2.126-11.9-1.7a1.348,1.348,0,0,0-.313.112c-.247.131-.711.421-1.331.824-.429.279-.933.613-1.488.984L47.7,19.9l-.022.048-.623,1.374Z" transform="translate(-34.587 0)" fill="#ffb97c"/>
            <path id="Path_123207" data-name="Path 123207" d="M164.493,49.114a9.67,9.67,0,0,1,1.086,3.632s2.946-.729,3.225-2.024c.456-2.115-2.483-2.766-4.311-1.608" transform="translate(-122.61 -36.186)" fill="#f8e8dc"/>
            <path id="Path_123208" data-name="Path 123208" d="M139.391,56.883s-.771,2.174.746,3.488c0,0-2.434-.694-.746-3.488" transform="translate(-103.455 -42.399)" fill="#fb8862"/>
            <path id="Path_123209" data-name="Path 123209" d="M107.583,23.085a5.27,5.27,0,0,1,.929-1.468,2.714,2.714,0,0,0-1.293,1.155,3.988,3.988,0,0,1-3.126-1.572,4.241,4.241,0,0,1,.566-1.732,3.829,3.829,0,0,0-1.016,1.349,8.371,8.371,0,0,0-3.763,3.022,8,8,0,0,0-2.127-3.477,7.947,7.947,0,0,1,1.2,4.55c-.038.037-.077.073-.116.108a7.121,7.121,0,0,0-1.443-1.935.021.021,0,0,0-.033.024,4.4,4.4,0,0,1,.595,2.486,2.963,2.963,0,0,0-1.127,1.063,10.461,10.461,0,0,0-3.119.935c.707-.01,1.8-.006,2.807,0a8.886,8.886,0,0,0,2.461.024h.011v0a2.066,2.066,0,0,0,.43-.106c-.216-.048-.335-.075-.388-.088,0,0,.388.09.388.088H99.5c1.281-4.511,4.108-5.735,4.108-5.735a5.39,5.39,0,0,0,3.511,1.782l.073-.055a.676.676,0,0,0,.274,0,1.955,1.955,0,0,1,.057-.251l.086-.065-.031-.1" transform="translate(-69.845 -14.51)" fill="#fb8862"/>
            <path id="Path_123210" data-name="Path 123210" d="M134.627,52.756a2.293,2.293,0,0,1,.073-1.216c.178.013.334.029.458.045a3.251,3.251,0,0,0-.531,1.171" transform="translate(-100.318 -38.417)" fill="#fb8862"/>
            <path id="Path_123211" data-name="Path 123211" d="M13.873,28.141A29.7,29.7,0,0,1,16.925,30.2a9.2,9.2,0,0,1-4.477-1.04A8.536,8.536,0,0,0,9.776,28.3a11.277,11.277,0,0,0-3.334-.113.933.933,0,0,0-.107.027l-.017.006-1.34.438H4.972L0,30.28V15.893l5.385-.969,2.5-.451,1.381-.248c.348-.137.7-.285,1.064-.441a92.964,92.964,0,0,0,10.893-5.96c-.4,6.957-4.423,14.231-7.33,18.64q-.2.3-.388.581l.243.736Z" transform="translate(-0.001 -5.832)" fill="#ffb97c"/>
            <path id="Path_123212" data-name="Path 123212" d="M25.54,47.761a11.276,11.276,0,0,0-3.334-.113L21.15,34.39l2.5-.451c.82,2.076,2.841,7.991,1.885,13.822" transform="translate(-15.765 -25.297)" fill="#fb8862"/>
            <path id="Path_123213" data-name="Path 123213" d="M7.681,48.615l-2.745.517L0,50.061V31.784l3.166-.455,3.075-.442A32.971,32.971,0,0,1,8.4,39.221a24.093,24.093,0,0,1-.716,9.394" transform="translate(0 -23.023)" fill="#fff"/>
            <g id="Group_94232" data-name="Group 94232" transform="translate(3.166 7.864)" opacity="0.2">
              <g id="Group_94231" data-name="Group 94231">
                <g id="Group_94230" data-name="Group 94230" clip-path="url(#clip-path-10)">
                  <path id="Path_123214" data-name="Path 123214" d="M16.95,48.615l-2.745.517c.962-7.309-.9-14.836-1.77-17.8l3.075-.442a32.971,32.971,0,0,1,2.156,8.334,24.093,24.093,0,0,1-.716,9.394" transform="translate(-12.435 -30.887)"/>
                </g>
              </g>
            </g>
            <g id="Group_94235" data-name="Group 94235" transform="translate(0 16.198)" opacity="0.2">
              <g id="Group_94234" data-name="Group 94234" transform="translate(0.883)">
                <g id="Group_94233" data-name="Group 94233" transform="translate(0.702)" clip-path="url(#clip-path-11)">
                  <path id="Path_123215" data-name="Path 123215" d="M0,64.794l7.455-1.175a24.977,24.977,0,0,1-.636,9.024L0,74.031Z" transform="translate(-0.623 -63.619)"/>
                </g>
              </g>
            </g>
          </g>
        </g>
      </g>
    </g>
    <g id="Group_94249" data-name="Group 94249" transform="translate(885.578 602)">
      <g id="Group_94248" data-name="Group 94248" clip-path="url(#clip-path-12)">
        <g id="Group_94247" data-name="Group 94247">
          <g id="Group_94246" data-name="Group 94246" clip-path="url(#clip-path-12)">
            <path id="Path_123216" data-name="Path 123216" d="M182.947,2.778s-5.093,5.028-8.051,7.465a21.91,21.91,0,0,1-2.033,1.468h0c-3.266,2.113-7.345,3.9-10.718,6.95A6.874,6.874,0,0,1,158.5,20.07h0q-.519.075-1.075.119l-.248.018c-5.363.364-12.849-1.168-16.17-.73-.1.013-.194.027-.285.043l-.713.853-.131.156-.726.869-.117.14-4.362,5.221V10.855l.8-.961,1.259-1.522s4.418-5.608,10.587-4.666,9.428,2.97,15.169,2.577,6.982-2.4,8.534,0c0,0,.146-.116.4-.318,1.652-1.293,7.917-6.088,9.744-5.962a1.864,1.864,0,0,1,.915.287l.035.024h0c1.048.73.832,2.463.832,2.463" transform="translate(-105.216 -0.001)" fill="#ffb97c"/>
            <path id="Path_123217" data-name="Path 123217" d="M248.354,27.221s1.659,2.907-4.088,4.938a26.193,26.193,0,0,1-10.6,1.479,17.445,17.445,0,0,0,10.455-.688c5.223-2.232,5.967-2.525,4.775-6.149Z" transform="translate(-182.552 -20.939)" fill="#fb8862"/>
            <path id="Path_123218" data-name="Path 123218" d="M343.725,12.12s-.46-.5-1.525.266-1.987,2.171-1.672,2.82a15.118,15.118,0,0,0,3.2-3.085" transform="translate(-265.993 -9.343)" fill="#f8e8dc"/>
            <path id="Path_123219" data-name="Path 123219" d="M276.337,23.479s.8,1.737.431,2.492c0,0-2.4,1.039-3.629.236s-1.343-1.758,3.2-2.729" transform="translate(-212.825 -18.343)" fill="#f8e8dc"/>
            <path id="Path_123220" data-name="Path 123220" d="M313.364.315h0c-.059-.017-1.624-.434-4.151,1.7-2.576,2.18-6.164,4.633-6.164,4.633s-.17-.305-.378-.688c1.653-1.293,7.917-6.088,9.744-5.962a1.865,1.865,0,0,1,.914.287l.036.025" transform="translate(-236.465 -0.001)" fill="#fb8862"/>
            <path id="Path_123221" data-name="Path 123221" d="M141.009,54.812c-.1.013-.194.027-.285.043l-.713.853-.131.156-.726.87-.117.14-4.363,5.22V46.19l.8-.961A61.415,61.415,0,0,1,138.9,55.3a4.507,4.507,0,0,1,2.114-.486" transform="translate(-105.216 -35.336)" fill="#fb8862"/>
            <path id="Path_123222" data-name="Path 123222" d="M33.363,59.833l-2.515,3.228L22.64,73.594a88.122,88.122,0,0,1-10.464-3.811A16.109,16.109,0,0,1,6.688,65.96L25.74,46.794l3.09-3.217s1.232,3.175,2.416,6.951a45.291,45.291,0,0,1,2.117,9.3" transform="translate(0.001 -34.045)" fill="#00b6d5"/>
            <path id="Path_123223" data-name="Path 123223" d="M257.973,53.538c-3.266,2.113-7.345,3.9-10.718,6.95a6.874,6.874,0,0,1-3.641,1.409c2.509-.649,5.373-3.684,7.838-5,2.8-1.491,6.45-3.325,6.522-3.361" transform="translate(-190.327 -41.827)" fill="#fb8862"/>
            <g id="Group_94242" data-name="Group 94242" transform="translate(10.93 16.483)" opacity="0.2">
              <g id="Group_94241" data-name="Group 94241">
                <g id="Group_94240" data-name="Group 94240" clip-path="url(#clip-path-14)">
                  <path id="Path_123224" data-name="Path 123224" d="M69.364,83.438s-9.5,14.713-11.05,14.386-8.344-2.432-8.344-2.432L67.534,75.355a39.5,39.5,0,0,1,1.831,8.083" transform="translate(-46.931 -75.355)"/>
                </g>
              </g>
            </g>
            <path id="Path_123225" data-name="Path 123225" d="M241.142,28.93a1.973,1.973,0,0,0-.284,3.09,3.387,3.387,0,0,1,.284-3.09" transform="translate(-187.696 -22.602)" fill="#fb8862"/>
            <g id="Group_94245" data-name="Group 94245" transform="translate(25.74 9.532)" opacity="0.2">
              <g id="Group_94244" data-name="Group 94244">
                <g id="Group_94243" data-name="Group 94243" clip-path="url(#clip-path-15)">
                  <path id="Path_123226" data-name="Path 123226" d="M125.3,59.833l-3.257,4.18a105.644,105.644,0,0,0-4.366-17.219l3.09-3.217s1.232,3.175,2.416,6.951a45.29,45.29,0,0,1,2.117,9.3" transform="translate(-117.678 -43.577)"/>
                </g>
              </g>
            </g>
          </g>
        </g>
      </g>
    </g>
  </g>
</svg>
