<svg xmlns="http://www.w3.org/2000/svg" width="97" height="97" viewBox="0 0 97 97">
  <g id="no-result" transform="translate(-139 -318)">
    <circle id="Ellipse_12" data-name="Ellipse 12" cx="48.5" cy="48.5" r="48.5" transform="translate(139 318)" fill="#f9fafc"/>
    <g id="Group_21875" data-name="Group 21875" transform="translate(-1492.875 -1473.199)">
      <g id="search_plus" data-name="search plus" transform="translate(1659.625 1818.949)">
        <path id="Vector_2430_Stroke_" data-name="Vector 2430 (Stroke)" d="M.439.439a1.5,1.5,0,0,1,2.121,0l9,9a1.5,1.5,0,0,1-2.121,2.121l-9-9A1.5,1.5,0,0,1,.439.439Z" transform="translate(29.5 29.5)" fill="#e6ebf7"/>
        <path id="Subtract" d="M19,38A19,19,0,1,0,0,19,19,19,0,0,0,19,38ZM19,9.5A1.5,1.5,0,0,1,20.5,11v6.5H27a1.5,1.5,0,0,1,0,3H20.5V27a1.5,1.5,0,0,1-3,0V20.5H11a1.5,1.5,0,0,1,0-3h6.5V11A1.5,1.5,0,0,1,19,9.5Z" fill="#e6ebf7" fill-rule="evenodd"/>
      </g>
    </g>
  </g>
</svg>
