<svg xmlns="http://www.w3.org/2000/svg" xmlns:xlink="http://www.w3.org/1999/xlink" width="669.151" height="404.897" viewBox="0 0 669.151 404.897">
  <defs>
    <clipPath id="clip-path">
      <rect id="Rectangle_5175" data-name="Rectangle 5175" width="597.129" height="404.897" fill="none"/>
    </clipPath>
  </defs>
  <g id="not-found" transform="translate(-589.414 -415)">
    <path id="Path_123123" data-name="Path 123123" d="M121.316,127.28H6.89a4.422,4.422,0,0,1,0-8.844H121.316a4.422,4.422,0,0,1,0,8.844" transform="translate(661.436 415)" fill="rgba(82,82,82,0.18)"/>
    <path id="Path_123124" data-name="Path 123124" d="M307.7,6.369H256.219a3.155,3.155,0,0,1-3.125-3.185A3.155,3.155,0,0,1,256.219,0H307.7a3.155,3.155,0,0,1,3.125,3.184A3.155,3.155,0,0,1,307.7,6.369" transform="translate(700.309 458)" fill="rgba(82,82,82,0.18)"/>
    <path id="Path_123125" data-name="Path 123125" d="M57.845,185.634H44.69a6.258,6.258,0,0,1-6.258-6.259V167.027a6.258,6.258,0,0,1,6.258-6.259H57.845a6.259,6.259,0,0,1,6.258,6.259v12.348a6.258,6.258,0,0,1-6.258,6.259" transform="translate(661.436 415)" fill="#407ffe"/>
    <path id="Path_123126" data-name="Path 123126" d="M440.482,404.9H433.3a3.416,3.416,0,0,1-3.416-3.415v-6.737a3.415,3.415,0,0,1,3.416-3.414h7.177a3.415,3.415,0,0,1,3.415,3.414v6.737a3.416,3.416,0,0,1-3.415,3.415" transform="translate(681.557 359.271)" fill="rgba(82,82,82,0.18)"/>
    <path id="Path_123127" data-name="Path 123127" d="M569.2,117.2h-7.177a3.415,3.415,0,0,1-3.415-3.414v-6.739a3.415,3.415,0,0,1,3.415-3.414H569.2a3.415,3.415,0,0,1,3.415,3.414v6.739A3.415,3.415,0,0,1,569.2,117.2" transform="translate(596.574 511.879)" fill="#407ffe"/>
    <path id="Path_123128" data-name="Path 123128" d="M67.371,325.363,31.132,344.137l10.44,5.056-12.965,15.5,10.116,8.284,12.524-16.645,8.394,9Z" transform="translate(661.436 415)" fill="#fefef4"/>
    <path id="Path_123129" data-name="Path 123129" d="M193.557,403.468H151.215a5.677,5.677,0,1,1,0-11.354h42.342a5.677,5.677,0,1,1,0,11.354" transform="translate(663.078 372.055)" fill="rgba(82,82,82,0.18)"/>
    <path id="Path_123130" data-name="Path 123130" d="M561.066,325.363H126.26c-5.036,0-9.118-2.8-9.118-6.243V71.16c0-3.448,4.081-6.243,9.118-6.243H561.066c5.035,0,9.118,2.8,9.118,6.243V319.12c0,3.448-4.083,6.243-9.118,6.243" transform="translate(611.664 415)" fill="rgba(216,216,216,0.14)"/>
    <line id="Line_231" data-name="Line 231" x2="397.387" transform="translate(736.5 515.814)" fill="none" stroke="#fefef4" stroke-miterlimit="10" stroke-width="1.941"/>
    <rect id="Rectangle_5172" data-name="Rectangle 5172" width="442.309" height="298.327" rx="7.151" transform="translate(736.578 479.917)" fill="none" stroke="#fefef4" stroke-miterlimit="10" stroke-width="1.941"/>
    <circle id="Ellipse_2948" data-name="Ellipse 2948" cx="5.009" cy="5.009" r="5.009" transform="translate(803.605 493.223)" fill="none" stroke="#fefef4" stroke-miterlimit="10" stroke-width="1.941"/>
    <circle id="Ellipse_2949" data-name="Ellipse 2949" cx="5.009" cy="5.009" r="5.009" transform="translate(823.072 493.223)" fill="none" stroke="#fefef4" stroke-miterlimit="10" stroke-width="1.941"/>
    <circle id="Ellipse_2950" data-name="Ellipse 2950" cx="5.009" cy="5.009" r="5.009" transform="translate(842.541 493.223)" fill="none" stroke="#fefef4" stroke-miterlimit="10" stroke-width="1.941"/>
    <g id="Group_94185" data-name="Group 94185" transform="translate(-72.021 -7.757)">
      <path id="Path_123131" data-name="Path 123131" d="M190.906,309.478H10.353A10.353,10.353,0,0,1,0,299.124V232.192a10.354,10.354,0,0,1,10.353-10.354H190.906a10.354,10.354,0,0,1,10.354,10.354v66.932a10.354,10.354,0,0,1-10.354,10.354" transform="translate(661.436 415)" fill="#6eb1ff"/>
      <circle id="Ellipse_2951" data-name="Ellipse 2951" cx="3.811" cy="3.811" r="3.811" transform="translate(678.221 649.3)" fill="none" stroke="#fefef4" stroke-miterlimit="10" stroke-width="1.477"/>
      <circle id="Ellipse_2952" data-name="Ellipse 2952" cx="3.811" cy="3.811" r="3.811" transform="translate(693.031 649.3)" fill="none" stroke="#fefef4" stroke-miterlimit="10" stroke-width="1.477"/>
      <circle id="Ellipse_2953" data-name="Ellipse 2953" cx="3.811" cy="3.811" r="3.811" transform="translate(707.842 649.3)" fill="none" stroke="#fefef4" stroke-miterlimit="10" stroke-width="1.477"/>
      <line id="Line_232" data-name="Line 232" x2="201.26" transform="translate(661.436 667.537)" fill="none" stroke="#fefef4" stroke-miterlimit="10" stroke-width="1.477"/>
    </g>
    <path id="Path_123132" data-name="Path 123132" d="M515.392,110.6h-81a12.24,12.24,0,0,1-12.24-12.24V33.018a12.24,12.24,0,0,1,12.24-12.24h81a12.24,12.24,0,0,1,12.24,12.24V98.355a12.24,12.24,0,0,1-12.24,12.24" transform="translate(661.436 415)" fill="#17c661"/>
    <path id="Path_123133" data-name="Path 123133" d="M468.236,75.9a18.227,18.227,0,1,1,18.227-18.228A18.248,18.248,0,0,1,468.236,75.9m0-32.325a14.1,14.1,0,1,0,14.1,14.1,14.114,14.114,0,0,0-14.1-14.1" transform="translate(661.436 415)" fill="#fefef4"/>
    <rect id="Rectangle_5173" data-name="Rectangle 5173" width="4.13" height="7.61" transform="translate(1139.619 485.584) rotate(-45)" fill="#fefef4"/>
    <path id="Path_123134" data-name="Path 123134" d="M489.253,72.274,499.9,82.923a2.891,2.891,0,0,1,0,4.09l-2.369,2.369a2.892,2.892,0,0,1-4.089,0l-10.65-10.649a2.893,2.893,0,0,1,0-4.09l2.369-2.369a2.893,2.893,0,0,1,4.09,0" transform="translate(661.436 415)" fill="#fefef4"/>
    <path id="Path_123135" data-name="Path 123135" d="M86.225,82.436H39.673A14.132,14.132,0,0,1,25.541,68.305V28.827A14.132,14.132,0,0,1,39.673,14.695H86.225a14.132,14.132,0,0,1,14.132,14.132V68.305A14.132,14.132,0,0,1,86.225,82.436" transform="translate(661.436 415)" fill="#fe4f40"/>
    <path id="Path_123136" data-name="Path 123136" d="M62.949,63.159A15.849,15.849,0,1,1,78.8,47.31,15.867,15.867,0,0,1,62.949,63.159m0-26.935A11.086,11.086,0,1,0,74.035,47.31,11.1,11.1,0,0,0,62.949,36.224" transform="translate(661.436 415)" fill="#fefef4"/>
    <line id="Line_233" data-name="Line 233" x1="18.174" y2="22.172" transform="translate(715.553 451.225)" fill="none" stroke="#fefef4" stroke-miterlimit="10" stroke-width="4.522"/>
    <rect id="Rectangle_5174" data-name="Rectangle 5174" width="597.129" height="404.897" transform="translate(661.436 415)" fill="none"/>
    <g id="Group_94184" data-name="Group 94184" transform="translate(661.436 415)">
      <g id="Group_94183" data-name="Group 94183" clip-path="url(#clip-path)">
        <circle id="Ellipse_2954" data-name="Ellipse 2954" cx="3.691" cy="3.691" r="3.691" transform="translate(418.856 179.475)" fill="none" stroke="#fefef4" stroke-miterlimit="10" stroke-width="1.43"/>
      </g>
    </g>
    <text id="The_page_can_t_be_found" data-name="The page can’t 
be found" transform="translate(953 601)" fill="#242424" font-size="43" font-family="ArialMT, Arial"><tspan x="-148.211" y="0">The page can’t </tspan><tspan x="-83.69" y="51">be found</tspan></text>
  </g>
</svg>
