<svg xmlns="http://www.w3.org/2000/svg" xmlns:xlink="http://www.w3.org/1999/xlink" width="265.489" height="86.845" viewBox="0 0 265.489 86.845">
  <defs>
    <clipPath id="clip-path">
      <path id="Path_1357" data-name="Path 1357" d="M172.627,148.649l-11.971-6.912L137.565,128.4c-1.282-.74-2.559-.292-2.559,1.255v54.319c0,1.16.913,1.66,2.027,1.017l23.623-13.64,11.971-6.911,11.507-6.643c1.35-.78,1.22-1.849.081-2.463S172.627,148.649,172.627,148.649Z" transform="translate(-135.006 -128.056)" fill="none"/>
    </clipPath>
    <linearGradient id="linear-gradient" x1="0.5" x2="0.5" y2="1" gradientUnits="objectBoundingBox">
      <stop offset="0" stop-color="#006aa2"/>
      <stop offset="0.345" stop-color="#2f8da6"/>
      <stop offset="0.786" stop-color="#66b6ac"/>
      <stop offset="1" stop-color="#7cc6af"/>
    </linearGradient>
    <linearGradient id="linear-gradient-2" y1="0.5" x2="1" y2="0.5" gradientUnits="objectBoundingBox">
      <stop offset="0" stop-color="#4ab59d"/>
      <stop offset="1" stop-color="#dfe385"/>
    </linearGradient>
    <linearGradient id="linear-gradient-3" x1="0.5" x2="0.5" y2="1" gradientUnits="objectBoundingBox">
      <stop offset="0" stop-color="#e4282d"/>
      <stop offset="0.316" stop-color="#ba2d4e"/>
      <stop offset="0.777" stop-color="#83357b"/>
      <stop offset="1" stop-color="#6e388d"/>
    </linearGradient>
    <linearGradient id="linear-gradient-4" x1="0.5" x2="0.5" y2="1" gradientUnits="objectBoundingBox">
      <stop offset="0" stop-color="#f07165"/>
      <stop offset="0.659" stop-color="#faa460"/>
      <stop offset="1" stop-color="#ffba5e"/>
    </linearGradient>
  </defs>
  <g id="Group_313" data-name="Group 313" transform="translate(-96.641 -94.522)">
    <path id="Path_1352" data-name="Path 1352" d="M362.13,169.63A11.736,11.736,0,0,1,350.4,181.367H108.377A11.738,11.738,0,0,1,96.641,169.63V106.258a11.737,11.737,0,0,1,11.736-11.736H350.4a11.735,11.735,0,0,1,11.733,11.736Z" transform="translate(0)" fill="#132c79"/>
    <g id="PLAY" transform="translate(116.555 111.928)">
      <g id="Group_308" data-name="Group 308" clip-path="url(#clip-path)">
        <path id="Path_1353" data-name="Path 1353" d="M135.006,126.293V185.1L164.662,155.7Z" transform="translate(-135.006 -127.208)" fill="url(#linear-gradient)"/>
        <path id="Path_1354" data-name="Path 1354" d="M172.627,147.6l-11.971-6.912-25.65-14.81v.214L164.662,155.5Z" transform="translate(-135.006 -127.009)" fill="url(#linear-gradient-2)"/>
        <path id="Path_1355" data-name="Path 1355" d="M135.006,212.351v.213l25.65-14.81,11.971-6.911-7.965-7.9Z" transform="translate(-135.006 -154.454)" fill="url(#linear-gradient-3)"/>
        <path id="Path_1356" data-name="Path 1356" d="M200.105,167.729l-7.965,7.9,7.965,7.9,13.681-7.9Z" transform="translate(-162.484 -147.136)" fill="url(#linear-gradient-4)"/>
      </g>
    </g>
    <g id="Group_309" data-name="Group 309" transform="translate(295.3 127.321)">
      <path id="Path_1358" data-name="Path 1358" d="M487.326,188.667a7.4,7.4,0,0,1-3.051-.616,5.751,5.751,0,0,1-2.318-1.9h-.187a23,23,0,0,1,.187,2.84v7.038h-2.589V171.252h2.106l.358,2.341h.125a6.031,6.031,0,0,1,2.326-2.029,7.072,7.072,0,0,1,3.042-.624,6.321,6.321,0,0,1,5.251,2.325,12.385,12.385,0,0,1-.03,13.071A6.338,6.338,0,0,1,487.326,188.667Zm-.375-15.527a4.589,4.589,0,0,0-3.791,1.451,7.473,7.473,0,0,0-1.2,4.62v.577q0,3.606,1.2,5.158a4.571,4.571,0,0,0,3.854,1.553,4.01,4.01,0,0,0,3.474-1.794,8.515,8.515,0,0,0,1.256-4.948,8.2,8.2,0,0,0-1.256-4.908A4.133,4.133,0,0,0,486.951,173.14Z" transform="translate(-479.368 -164.073)" fill="#f9f9f9"/>
      <path id="Path_1359" data-name="Path 1359" d="M517.535,181.993h-2.591V157.711h2.591Z" transform="translate(-496.478 -157.711)" fill="#f9f9f9"/>
      <path id="Path_1360" data-name="Path 1360" d="M537.7,188.384l-.515-2.434h-.125a7.176,7.176,0,0,1-2.552,2.177,7.76,7.76,0,0,1-3.175.57,5.712,5.712,0,0,1-3.987-1.311,4.777,4.777,0,0,1-1.444-3.729q0-5.18,8.286-5.431l2.9-.094V177.07a4.333,4.333,0,0,0-.867-2.973,3.559,3.559,0,0,0-2.77-.96,11.278,11.278,0,0,0-4.838,1.311l-.8-1.982a12.172,12.172,0,0,1,2.771-1.077,11.992,11.992,0,0,1,3.019-.39,6.519,6.519,0,0,1,4.533,1.357,5.669,5.669,0,0,1,1.474,4.354v11.673Zm-5.852-1.825a5.262,5.262,0,0,0,3.8-1.326,4.911,4.911,0,0,0,1.381-3.715v-1.545l-2.592.109a9.419,9.419,0,0,0-4.455.96,2.9,2.9,0,0,0-1.365,2.645,2.664,2.664,0,0,0,.851,2.137A3.529,3.529,0,0,0,531.843,186.559Z" transform="translate(-501.746 -164.102)" fill="#f9f9f9"/>
      <path id="Path_1361" data-name="Path 1361" d="M555.222,171.541H558l3.745,9.754a37.277,37.277,0,0,1,1.53,4.823h.125q.2-.8.85-2.725t4.237-11.852h2.779l-7.351,19.476a9.719,9.719,0,0,1-2.552,4.1,5.427,5.427,0,0,1-3.581,1.208,10.45,10.45,0,0,1-2.341-.265v-2.075a9.047,9.047,0,0,0,1.92.187q2.669,0,3.808-3l.951-2.434Z" transform="translate(-515.849 -164.362)" fill="#f9f9f9"/>
    </g>
    <g id="Group_311" data-name="Group 311" transform="translate(177.207 125.408)">
      <path id="Path_1362" data-name="Path 1362" d="M389.886,173.41a6.031,6.031,0,0,1,2.539,4.83c0,2.646-1.5,3.9-3.005,5.079a2.516,2.516,0,0,0-1,1.755,1.962,1.962,0,0,0,.931,1.537l1.288,1c1.574,1.324,3,2.541,3,5.011,0,3.362-3.256,6.76-9.407,6.76-5.188,0-7.691-2.468-7.691-5.116A5.147,5.147,0,0,1,379.3,189.9c2.216-1.359,5.223-1.536,6.832-1.646a3.746,3.746,0,0,1-1.074-2.431,3.223,3.223,0,0,1,.358-1.4c-.4.036-.788.071-1.146.071a5.655,5.655,0,0,1-5.938-5.615,6.436,6.436,0,0,1,2.289-4.794,9.755,9.755,0,0,1,6.406-1.968h7.368l-2.29,1.288Zm-2.541,15.884a5.549,5.549,0,0,0-.822-.037,14.291,14.291,0,0,0-3.757.575c-.786.284-3.077,1.142-3.077,3.684s2.47,4.366,6.3,4.366c3.433,0,5.259-1.649,5.259-3.865C391.246,192.189,390.066,191.227,387.346,189.294Zm1.038-6.8a3.617,3.617,0,0,0,.892-2.611c0-2.576-1.537-6.582-4.505-6.582a3.343,3.343,0,0,0-2.505,1.181,4.135,4.135,0,0,0-.787,2.648c0,2.4,1.4,6.367,4.473,6.367A3.661,3.661,0,0,0,388.384,182.5Z" transform="translate(-311.823 -162.729)" fill="#f9f9f9"/>
      <path id="Path_1363" data-name="Path 1363" d="M350.787,188.25a8.428,8.428,0,0,1-8.714-8.431c0-4.679,3.821-8.678,9.252-8.678a8.35,8.35,0,0,1,8.534,8.429A8.727,8.727,0,0,1,350.787,188.25Zm4.464-2.893a6.461,6.461,0,0,0,1.073-3.966c0-3.143-1.5-9.143-5.929-9.143a4.973,4.973,0,0,0-3.213,1.216,5.4,5.4,0,0,0-1.645,4.358c0,3.533,1.75,9.354,6.073,9.354A4.562,4.562,0,0,0,355.251,185.358Z" transform="translate(-295.245 -162.258)" fill="#f9f9f9"/>
      <path id="Path_1364" data-name="Path 1364" d="M313.491,188.25a8.429,8.429,0,0,1-8.715-8.431c0-4.679,3.822-8.678,9.252-8.678a8.35,8.35,0,0,1,8.535,8.429A8.727,8.727,0,0,1,313.491,188.25Zm4.464-2.893a6.467,6.467,0,0,0,1.072-3.966c0-3.143-1.5-9.143-5.93-9.143a4.977,4.977,0,0,0-3.214,1.216,5.4,5.4,0,0,0-1.643,4.358c0,3.533,1.749,9.354,6.072,9.354A4.565,4.565,0,0,0,317.956,185.358Z" transform="translate(-277.307 -162.258)" fill="#f9f9f9"/>
      <path id="Path_1365" data-name="Path 1365" d="M276.6,180.2l-5.135,1.185a38,38,0,0,1-5.924.609c-9.912,0-13.681-7.29-13.681-13,0-6.965,5.349-13.428,14.507-13.428a20.67,20.67,0,0,1,5.493.754,13.992,13.992,0,0,1,4.74,2.226l-2.981,2.837-1.256.286.9-1.437a10.262,10.262,0,0,0-7.684-3.373c-5.674,0-9.948,4.31-9.948,10.594,0,6.749,4.884,13.105,12.711,13.105a10.693,10.693,0,0,0,4.561-.9v-5.78l-5.421.287,2.871-1.545h7.613l-.932.9a.841.841,0,0,0-.36.574c-.037.324-.071,1.366-.071,1.725Z" transform="translate(-251.856 -154.767)" fill="#f9f9f9"/>
      <path id="Path_1366" data-name="Path 1366" d="M417.048,178.424c-1.186-.108-1.434-.322-1.434-1.724V156.377c.007-.078.013-.157.02-.232.145-1.256.5-1.472,1.618-2.119h-5.137l-2.694,1.293h2.745v.017l0-.013v22.169c0,.717-.142.825-.969,1.9h6.356l1.328-.788C418.271,178.531,417.66,178.5,417.048,178.424Z" transform="translate(-327.635 -154.026)" fill="#f9f9f9"/>
      <path id="Path_1367" data-name="Path 1367" d="M440.205,187c-.391.215-.783.466-1.174.643a8.313,8.313,0,0,1-3.463.677,7.621,7.621,0,0,1-4.743-1.392,9.229,9.229,0,0,1-3.635-7.525,8.082,8.082,0,0,1,8.166-8.236,6.931,6.931,0,0,1,3.675,1,5.9,5.9,0,0,1,2.493,3.528l-8.378,3.389-2.746.214c.89,4.528,3.957,7.165,7.346,7.165a9.214,9.214,0,0,0,4.35-1.246Zm-3.351-10.628c.676-.249,1.033-.464,1.033-.962a3.539,3.539,0,0,0-3.531-3.067c-1.428,0-4.1,1.106-4.1,4.957,0,.606.071,1.248.108,1.891Z" transform="translate(-336.181 -162.269)" fill="#f9f9f9"/>
      <g id="Group_310" data-name="Group 310" transform="translate(106.402 8.896)">
        <path id="Path_1368" data-name="Path 1368" d="M457.91,171.408v2.353h-.285v-2.353h-.779v-.243h1.842v.243Z" transform="translate(-456.846 -171.165)" fill="#f9f9f9"/>
        <path id="Path_1369" data-name="Path 1369" d="M463.259,173.761v-2.375h-.013l-.725,2.375H462.3l-.731-2.375h-.009v2.375h-.26v-2.6h.445l.662,2.1h.009l.651-2.1h.451v2.6Z" transform="translate(-458.987 -171.165)" fill="#f9f9f9"/>
      </g>
    </g>
    <g id="Group_312" data-name="Group 312" transform="translate(177.268 111.789)">
      <path id="Path_1370" data-name="Path 1370" d="M259.044,135.37H257.26a11.835,11.835,0,0,0-.508-2.086h-2.576a10.778,10.778,0,0,0-.524,2.086h-1.678q0-.218,1.3-3.569a28.018,28.018,0,0,0,1.3-3.692h2.107a30.788,30.788,0,0,0,1.179,3.639A31.84,31.84,0,0,1,259.044,135.37Zm-2.576-3.151a31.524,31.524,0,0,1-.953-3.111h-.089a32.615,32.615,0,0,1-.987,3.111Z" transform="translate(-251.974 -127.943)" fill="#f7f8f8"/>
      <path id="Path_1371" data-name="Path 1371" d="M273.9,135.37h-1.378a13.585,13.585,0,0,0-1.533-2.415,13.289,13.289,0,0,1-1.829-3.15h-.089a19.65,19.65,0,0,1,.14,2.208q0,1.377.078,3.357H267.92q.084-1.728.084-3.8,0-2.034-.084-3.463h1.656a10.476,10.476,0,0,0,1.377,2.359,13.885,13.885,0,0,1,1.684,2.972h.084a21.162,21.162,0,0,1-.133-2.23q0-1.51-.078-3.1H273.9q-.079,1.384-.078,3.463Q273.825,133.669,273.9,135.37Z" transform="translate(-259.643 -127.943)" fill="#f7f8f8"/>
      <path id="Path_1372" data-name="Path 1372" d="M289.334,131.458a4.112,4.112,0,0,1-1.015,2.766,3.544,3.544,0,0,1-2.843,1.182q-.825,0-2.275-.067.072-1.684.073-3.8,0-2.029-.073-3.463h.976q.24,0,.714-.017t.619-.017a3.757,3.757,0,0,1,2.919,1A3.469,3.469,0,0,1,289.334,131.458Zm-1.522.24a2.686,2.686,0,0,0-.624-1.8,2.369,2.369,0,0,0-1.907-.733,5.933,5.933,0,0,0-.658.05q.056,1.116.056,2.331,0,1.333.056,2.643a3.694,3.694,0,0,0,.725.073,2.106,2.106,0,0,0,1.776-.744A2.874,2.874,0,0,0,287.811,131.7Z" transform="translate(-266.992 -127.912)" fill="#f7f8f8"/>
      <path id="Path_1373" data-name="Path 1373" d="M303.928,135.339h-1.651a10.97,10.97,0,0,0-.992-2.437,1.3,1.3,0,0,0-1.115-.462c-.216,0-.422,0-.619.006q0,1.433.05,2.894h-1.55q.072-1.684.072-3.8,0-2.029-.072-3.463h.964q.167,0,.7-.017t.984-.017q2.559,0,2.56,1.751a1.964,1.964,0,0,1-1.461,1.935v.084a1.739,1.739,0,0,1,.987.878A19.363,19.363,0,0,1,303.928,135.339Zm-2.091-5.13q0-1.11-1.427-1.11a4.9,4.9,0,0,0-.926.078q.062.864.062,2.252.306.012.519.011Q301.837,131.442,301.837,130.209Z" transform="translate(-274.134 -127.912)" fill="#f7f8f8"/>
      <path id="Path_1374" data-name="Path 1374" d="M318.195,131.452a4.005,4.005,0,0,1-1.048,2.838,3.4,3.4,0,0,1-2.593,1.126,3.277,3.277,0,0,1-2.464-1.034,3.642,3.642,0,0,1-.992-2.629,4,4,0,0,1,1.048-2.838,3.4,3.4,0,0,1,2.593-1.126,3.283,3.283,0,0,1,2.465,1.031A3.642,3.642,0,0,1,318.195,131.452Zm-1.538.161a2.879,2.879,0,0,0-.6-1.89,1.837,1.837,0,0,0-1.472-.725,1.7,1.7,0,0,0-1.383.73,2.917,2.917,0,0,0-.569,1.846,2.87,2.87,0,0,0,.6,1.887,1.837,1.837,0,0,0,1.469.728,1.7,1.7,0,0,0,1.383-.733A2.919,2.919,0,0,0,316.656,131.613Z" transform="translate(-280.409 -127.788)" fill="#f7f8f8"/>
      <path id="Path_1375" data-name="Path 1375" d="M329.383,135.37H327.8q.072-1.728.073-3.8,0-2.034-.073-3.463h1.578q-.072,1.405-.072,3.463Q329.311,133.675,329.383,135.37Z" transform="translate(-288.444 -127.943)" fill="#f7f8f8"/>
      <path id="Path_1376" data-name="Path 1376" d="M340.732,131.458a4.112,4.112,0,0,1-1.015,2.766,3.544,3.544,0,0,1-2.843,1.182q-.825,0-2.275-.067.072-1.684.073-3.8,0-2.029-.073-3.463h.976q.24,0,.714-.017t.619-.017a3.757,3.757,0,0,1,2.919,1A3.471,3.471,0,0,1,340.732,131.458Zm-1.522.24a2.689,2.689,0,0,0-.624-1.8,2.369,2.369,0,0,0-1.907-.733,5.925,5.925,0,0,0-.658.05q.056,1.116.056,2.331,0,1.333.056,2.643a3.7,3.7,0,0,0,.725.073,2.106,2.106,0,0,0,1.776-.744A2.874,2.874,0,0,0,339.21,131.7Z" transform="translate(-291.712 -127.912)" fill="#f7f8f8"/>
      <path id="Path_1377" data-name="Path 1377" d="M360.52,135.37h-1.784a11.758,11.758,0,0,0-.508-2.086h-2.576a10.761,10.761,0,0,0-.524,2.086H353.45q0-.218,1.3-3.569a27.97,27.97,0,0,0,1.3-3.692h2.107a30.746,30.746,0,0,0,1.18,3.639A31.972,31.972,0,0,1,360.52,135.37Zm-2.576-3.151a31.639,31.639,0,0,1-.954-3.111H356.9a32.615,32.615,0,0,1-.987,3.111Z" transform="translate(-300.778 -127.943)" fill="#f7f8f8"/>
      <path id="Path_1378" data-name="Path 1378" d="M374.694,129.981a2.173,2.173,0,0,1-.99,1.968,4.4,4.4,0,0,1-2.428.636q-.262,0-.374-.011,0,1.048.061,2.766H369.4q.072-1.612.073-3.8,0-2.007-.073-3.463h.971q.206,0,.792-.017t1.015-.017a3.191,3.191,0,0,1,1.79.48A1.622,1.622,0,0,1,374.694,129.981Zm-1.439.307q0-1.193-1.584-1.193a4.459,4.459,0,0,0-.836.084q.062,1.053.061,2.386.139.012.323.011Q373.255,131.576,373.255,130.287Z" transform="translate(-308.447 -127.912)" fill="#f7f8f8"/>
      <path id="Path_1379" data-name="Path 1379" d="M387.577,129.981a2.173,2.173,0,0,1-.989,1.968,4.4,4.4,0,0,1-2.429.636c-.175,0-.3,0-.373-.011q0,1.048.061,2.766H382.28q.072-1.612.073-3.8,0-2.007-.073-3.463h.97q.206,0,.792-.017t1.015-.017a3.191,3.191,0,0,1,1.79.48A1.621,1.621,0,0,1,387.577,129.981Zm-1.438.307q0-1.193-1.584-1.193a4.458,4.458,0,0,0-.836.084q.062,1.053.061,2.386.139.012.323.011Q386.139,131.576,386.139,130.287Z" transform="translate(-314.643 -127.912)" fill="#f7f8f8"/>
      <path id="Path_1380" data-name="Path 1380" d="M406.973,131.452a4,4,0,0,1-1.048,2.838,3.4,3.4,0,0,1-2.593,1.126,3.277,3.277,0,0,1-2.465-1.034,3.644,3.644,0,0,1-.992-2.629,4,4,0,0,1,1.048-2.838,3.4,3.4,0,0,1,2.593-1.126,3.284,3.284,0,0,1,2.465,1.031A3.644,3.644,0,0,1,406.973,131.452Zm-1.539.161a2.876,2.876,0,0,0-.6-1.89,1.836,1.836,0,0,0-1.472-.725,1.7,1.7,0,0,0-1.383.73,2.917,2.917,0,0,0-.568,1.846,2.87,2.87,0,0,0,.6,1.887,1.836,1.836,0,0,0,1.469.728,1.7,1.7,0,0,0,1.383-.733A2.916,2.916,0,0,0,405.434,131.613Z" transform="translate(-323.105 -127.788)" fill="#f7f8f8"/>
      <path id="Path_1381" data-name="Path 1381" d="M422.567,135.37H421.19a13.586,13.586,0,0,0-1.533-2.415,13.3,13.3,0,0,1-1.829-3.15h-.089a19.757,19.757,0,0,1,.139,2.208q0,1.377.078,3.357h-1.372q.083-1.728.083-3.8,0-2.034-.083-3.463h1.656a10.492,10.492,0,0,0,1.378,2.359,13.885,13.885,0,0,1,1.684,2.972h.084a21.042,21.042,0,0,1-.134-2.23q0-1.51-.078-3.1h1.394q-.078,1.384-.078,3.463Q422.489,133.669,422.567,135.37Z" transform="translate(-331.141 -127.943)" fill="#f7f8f8"/>
    </g>
  </g>
</svg>
