<svg id="shopping-tag" xmlns="http://www.w3.org/2000/svg" width="22.708" height="22.708" viewBox="0 0 22.708 22.708">
  <path id="Path_123080" data-name="Path 123080" d="M25.02,14.287,13.848,3.115A.392.392,0,0,0,13.571,3H3.392A.392.392,0,0,0,3,3.392v10.18a.391.391,0,0,0,.115.277L14.287,25.02a2.349,2.349,0,0,0,3.322,0l7.411-7.411a2.349,2.349,0,0,0,0-3.322ZM9.264,11.222a1.958,1.958,0,1,1,1.958-1.958,1.958,1.958,0,0,1-1.958,1.958Zm7.324,8.5a.392.392,0,0,1-.554,0l-4.7-4.7a.392.392,0,1,1,.554-.554l4.7,4.7a.392.392,0,0,1,0,.554Zm3.132-3.132a.392.392,0,0,1-.554,0l-4.7-4.7a.392.392,0,1,1,.554-.554l4.7,4.7a.392.392,0,0,1,0,.554Z" transform="translate(-3 -3)" fill="#fff"/>
</svg>
