<svg xmlns="http://www.w3.org/2000/svg" width="29.52" height="32.202" viewBox="0 0 29.52 32.202">
  <g id="square-pin" transform="translate(-1)">
    <path id="Path_123138" data-name="Path 123138" d="M29.177,26.734H2.342a1.342,1.342,0,0,1-1.2-1.942l4.025-8.051a1.342,1.342,0,0,1,2.4,1.2L4.513,24.051H27.006l-3.054-6.109a1.342,1.342,0,0,1,2.4-1.2l4.025,8.051a1.343,1.343,0,0,1-1.2,1.943Z" transform="translate(0 5.468)" fill="#f7a839"/>
    <path id="Path_123139" data-name="Path 123139" d="M14.734,0A10.63,10.63,0,0,0,4,10.734c0,6.172,8.781,15.2,9.781,16.209a1.344,1.344,0,0,0,1.905,0c1-1.01,9.781-10.036,9.781-16.209A10.63,10.63,0,0,0,14.734,0Zm0,13.418a2.684,2.684,0,1,1,2.684-2.684A2.683,2.683,0,0,1,14.734,13.418Z" transform="translate(1.025)" fill="#f7a839"/>
  </g>
</svg>
