<svg xmlns="http://www.w3.org/2000/svg" width="265.489" height="86.845" viewBox="0 0 265.489 86.845">
  <g id="Group_307" data-name="Group 307" transform="translate(-96.641 -534.069)">
    <path id="Path_1322" data-name="Path 1322" d="M362.13,609.177A11.736,11.736,0,0,1,350.4,620.914H108.377a11.738,11.738,0,0,1-11.736-11.737V545.805a11.738,11.738,0,0,1,11.736-11.736H350.4a11.736,11.736,0,0,1,11.733,11.736Z" fill="#132c79"/>
    <path id="Path_1323" data-name="Path 1323" d="M160.591,562.682H138.966a4.693,4.693,0,0,0-4.693,4.693v47.911a4.694,4.694,0,0,0,4.693,4.694h21.625a4.7,4.7,0,0,0,4.7-4.694V567.375A4.694,4.694,0,0,0,160.591,562.682Zm-10.813,53.853a3.126,3.126,0,1,1,3.127-3.127A3.125,3.125,0,0,1,149.779,616.535ZM161.6,608.76H137.958V573.42H161.6Z" transform="translate(-18.099 -13.761)" fill="#fff"/>
    <g id="Group_305" data-name="Group 305" transform="translate(161.895 548.109)">
      <path id="Path_1324" data-name="Path 1324" d="M225.361,571.094l-1.314,3.981h-1.69l4.3-12.658h1.972l4.319,12.658H231.2l-1.352-3.981Zm4.15-1.276-1.258-3.644c-.263-.827-.451-1.577-.639-2.309h-.055c-.169.732-.376,1.521-.62,2.291l-1.239,3.662Z" transform="translate(-222.357 -561.742)" fill="#fff"/>
      <path id="Path_1325" data-name="Path 1325" d="M244.384,569.292l1.784,5.09c.3.844.545,1.6.733,2.346h.056c.207-.75.468-1.5.769-2.346l1.766-5.09h1.728l-3.57,9.089h-1.577l-3.453-9.089Z" transform="translate(-232.102 -565.049)" fill="#fff"/>
      <path id="Path_1326" data-name="Path 1326" d="M267.246,576.013a15.24,15.24,0,0,0,.132,2.177H265.9l-.151-1.145h-.056a3.354,3.354,0,0,1-2.78,1.352,2.588,2.588,0,0,1-2.779-2.609c0-2.2,1.953-3.4,5.464-3.381v-.188a1.866,1.866,0,0,0-2.065-2.1,4.378,4.378,0,0,0-2.386.675l-.377-1.109a5.9,5.9,0,0,1,3-.787c2.8,0,3.475,1.9,3.475,3.719Zm-1.615-2.461c-1.8-.037-3.848.282-3.848,2.047a1.447,1.447,0,0,0,1.538,1.577,2.3,2.3,0,0,0,2.236-1.521,1.711,1.711,0,0,0,.074-.527Z" transform="translate(-240.524 -564.858)" fill="#fff"/>
      <path id="Path_1327" data-name="Path 1327" d="M279.32,564.107a1.061,1.061,0,0,1,.038-2.121,1.016,1.016,0,0,1,1.053,1.051,1.034,1.034,0,0,1-1.07,1.07Zm-.787,10.761v-9.089h1.653v9.089Z" transform="translate(-249.256 -561.535)" fill="#fff"/>
      <path id="Path_1328" data-name="Path 1328" d="M287.043,561.117H288.7V574.45h-1.653Z" transform="translate(-253.467 -561.117)" fill="#fff"/>
      <path id="Path_1329" data-name="Path 1329" d="M301.07,576.013a15.327,15.327,0,0,0,.131,2.177h-1.485l-.15-1.145h-.056a3.357,3.357,0,0,1-2.781,1.352,2.589,2.589,0,0,1-2.779-2.609c0-2.2,1.953-3.4,5.466-3.381v-.188a1.867,1.867,0,0,0-2.067-2.1,4.366,4.366,0,0,0-2.382.675l-.377-1.109a5.9,5.9,0,0,1,3.005-.787c2.8,0,3.474,1.9,3.474,3.719Zm-1.615-2.461c-1.8-.037-3.851.282-3.851,2.047a1.449,1.449,0,0,0,1.54,1.577,2.3,2.3,0,0,0,2.236-1.521,1.68,1.68,0,0,0,.075-.527Z" transform="translate(-256.79 -564.858)" fill="#fff"/>
      <path id="Path_1330" data-name="Path 1330" d="M312.513,561.117h1.653v5.689h.038a3.37,3.37,0,0,1,3.1-1.652c2.255,0,3.832,1.878,3.832,4.62,0,3.268-2.066,4.882-4.093,4.882A3.255,3.255,0,0,1,314,572.947h-.04l-.094,1.5H312.44c.056-.621.073-1.54.073-2.347Zm1.653,9.691a2.968,2.968,0,0,0,.058.6,2.565,2.565,0,0,0,2.478,1.935c1.747,0,2.76-1.408,2.76-3.493,0-1.841-.938-3.4-2.7-3.4a2.742,2.742,0,0,0-2.593,2.722Z" transform="translate(-265.681 -561.117)" fill="#fff"/>
      <path id="Path_1331" data-name="Path 1331" d="M332.986,561.117h1.652V574.45h-1.652Z" transform="translate(-275.563 -561.117)" fill="#fff"/>
      <path id="Path_1332" data-name="Path 1332" d="M341.6,573.91a2.9,2.9,0,0,0,3.1,3.155,6.256,6.256,0,0,0,2.517-.451l.3,1.164a7.392,7.392,0,0,1-3.042.583,4.24,4.24,0,0,1-4.47-4.582c0-2.76,1.633-4.921,4.283-4.921,2.964,0,3.736,2.611,3.736,4.281a4.273,4.273,0,0,1-.057.79Zm4.826-1.182a2.36,2.36,0,0,0-2.273-2.687,2.726,2.726,0,0,0-2.535,2.687Z" transform="translate(-278.937 -564.84)" fill="#fff"/>
      <path id="Path_1333" data-name="Path 1333" d="M369.791,578.4a4.332,4.332,0,0,1-4.357-4.676c0-3.042,2.01-4.826,4.507-4.826,2.609,0,4.375,1.9,4.375,4.657a4.454,4.454,0,0,1-4.507,4.845Zm.056-1.238c1.578,0,2.76-1.484,2.76-3.55,0-1.54-.769-3.475-2.722-3.475-1.936,0-2.779,1.8-2.779,3.531,0,1.991,1.126,3.494,2.723,3.494Z" transform="translate(-291.168 -564.858)" fill="#fff"/>
      <path id="Path_1334" data-name="Path 1334" d="M386.31,571.563c0-.959-.021-1.709-.078-2.462H387.7l.093,1.484h.038a3.368,3.368,0,0,1,3-1.69c1.258,0,3.215.752,3.215,3.869v5.426h-1.655v-5.24c0-1.463-.543-2.7-2.1-2.7a2.385,2.385,0,0,0-2.215,1.691,2.477,2.477,0,0,0-.113.771v5.483h-1.65Z" transform="translate(-301.171 -564.858)" fill="#fff"/>
      <path id="Path_1335" data-name="Path 1335" d="M414.8,565.1v2.177h2.364v1.258H414.8v4.9c0,1.126.319,1.765,1.237,1.765a3.081,3.081,0,0,0,.96-.113l.073,1.258a4.488,4.488,0,0,1-1.463.226,2.363,2.363,0,0,1-1.786-.693,3.566,3.566,0,0,1-.638-2.386v-4.958h-1.407v-1.258h1.407V565.6Z" transform="translate(-313.456 -563.032)" fill="#fff"/>
      <path id="Path_1336" data-name="Path 1336" d="M425.557,561.117h1.652v5.671h.036a2.933,2.933,0,0,1,1.185-1.164,3.211,3.211,0,0,1,1.691-.47c1.219,0,3.171.752,3.171,3.888v5.408h-1.651v-5.22c0-1.484-.546-2.705-2.1-2.705a2.392,2.392,0,0,0-2.214,1.653,1.994,1.994,0,0,0-.114.789v5.483h-1.652Z" transform="translate(-320.084 -561.117)" fill="#fff"/>
      <path id="Path_1337" data-name="Path 1337" d="M445.782,573.91a2.9,2.9,0,0,0,3.1,3.155,6.274,6.274,0,0,0,2.518-.451l.3,1.164a7.4,7.4,0,0,1-3.043.583,4.24,4.24,0,0,1-4.469-4.582c0-2.76,1.635-4.921,4.282-4.921,2.966,0,3.738,2.611,3.738,4.281a4.22,4.22,0,0,1-.057.79Zm4.826-1.182a2.361,2.361,0,0,0-2.272-2.687,2.724,2.724,0,0,0-2.536,2.687Z" transform="translate(-329.043 -564.84)" fill="#fff"/>
      <path id="Path_1338" data-name="Path 1338" d="M471.447,564.107a1.061,1.061,0,0,1,.037-2.121,1.015,1.015,0,0,1,1.051,1.051,1.035,1.035,0,0,1-1.073,1.07Zm-.791,10.761v-9.089h1.652v9.089Z" transform="translate(-341.656 -561.535)" fill="#fff"/>
      <path id="Path_1339" data-name="Path 1339" d="M479.275,562.5a16.993,16.993,0,0,1,3.137-.263,5.182,5.182,0,0,1,3.547,1.053,3.409,3.409,0,0,1,1.128,2.647,3.654,3.654,0,0,1-1,2.7,5.236,5.236,0,0,1-3.868,1.39,5.742,5.742,0,0,1-1.314-.111v5.069h-1.635Zm1.635,6.085a5.579,5.579,0,0,0,1.352.132c1.99,0,3.174-.976,3.174-2.685,0-1.69-1.183-2.5-2.986-2.5a8.08,8.08,0,0,0-1.54.132Z" transform="translate(-345.919 -561.656)" fill="#fff"/>
      <path id="Path_1340" data-name="Path 1340" d="M498.053,561.117h1.653v5.671h.037a2.941,2.941,0,0,1,1.182-1.164,3.222,3.222,0,0,1,1.691-.47c1.22,0,3.173.752,3.173,3.888v5.408h-1.652v-5.22c0-1.484-.545-2.705-2.1-2.705a2.4,2.4,0,0,0-2.215,1.653,2,2,0,0,0-.113.789v5.483h-1.653Z" transform="translate(-354.95 -561.117)" fill="#fff"/>
      <path id="Path_1341" data-name="Path 1341" d="M521.041,578.4a4.332,4.332,0,0,1-4.357-4.676c0-3.042,2.01-4.826,4.508-4.826,2.609,0,4.374,1.9,4.374,4.657a4.453,4.453,0,0,1-4.505,4.845Zm.058-1.238c1.575,0,2.76-1.484,2.76-3.55,0-1.54-.77-3.475-2.724-3.475-1.933,0-2.78,1.8-2.78,3.531,0,1.991,1.126,3.494,2.723,3.494Z" transform="translate(-363.91 -564.858)" fill="#fff"/>
      <path id="Path_1342" data-name="Path 1342" d="M537.561,571.563c0-.959-.019-1.709-.075-2.462h1.465l.093,1.484h.038a3.369,3.369,0,0,1,3-1.69c1.258,0,3.209.752,3.209,3.869v5.426h-1.651v-5.24c0-1.463-.545-2.7-2.1-2.7a2.384,2.384,0,0,0-2.214,1.691,2.445,2.445,0,0,0-.116.771v5.483h-1.65Z" transform="translate(-373.915 -564.858)" fill="#fff"/>
      <path id="Path_1343" data-name="Path 1343" d="M557.857,573.91a2.9,2.9,0,0,0,3.1,3.155,6.253,6.253,0,0,0,2.515-.451l.3,1.164a7.406,7.406,0,0,1-3.042.583,4.24,4.24,0,0,1-4.47-4.582c0-2.76,1.634-4.921,4.281-4.921,2.967,0,3.738,2.611,3.738,4.281a4.3,4.3,0,0,1-.056.79Zm4.827-1.182a2.36,2.36,0,0,0-2.273-2.687,2.724,2.724,0,0,0-2.536,2.687Z" transform="translate(-382.944 -564.84)" fill="#fff"/>
    </g>
    <g id="Group_306" data-name="Group 306" transform="translate(161.545 569.492)">
      <path id="Path_1344" data-name="Path 1344" d="M232.817,603.32,221.683,636.1h5.1l3.325-10.064h10.781l3.418,10.064h5.24L238.362,603.32Zm2.642,5.389c.376,1.463.781,2.982,1.3,4.623l3,8.691h-8.54l2.96-8.747C234.633,611.858,235.06,610.326,235.459,608.709Z" transform="translate(-221.683 -602.798)" fill="#fff"/>
      <path id="Path_1345" data-name="Path 1345" d="M291.43,619.69a9.276,9.276,0,0,0-7.883,3.781l-.2-3.261h-4.536l.027.417c.133,2.031.189,4.266.189,7.476v25.263h4.958V641.577a8.71,8.71,0,0,0,6.779,2.912,10.227,10.227,0,0,0,7.514-3.194c2.172-2.3,3.318-5.6,3.318-9.538a13.189,13.189,0,0,0-2.881-8.709A9.432,9.432,0,0,0,291.43,619.69Zm-1.235,4.1c4.42,0,6.4,4.095,6.4,8.152,0,5.235-2.524,8.486-6.587,8.486a6.011,6.011,0,0,1-5.842-4.6,6.341,6.341,0,0,1-.177-1.606v-3.987a7.4,7.4,0,0,1,.158-1.224c.024-.135.051-.271.071-.4A6.279,6.279,0,0,1,290.194,623.795Z" transform="translate(-249.159 -610.671)" fill="#fff"/>
      <path id="Path_1346" data-name="Path 1346" d="M340.625,619.69a9.281,9.281,0,0,0-7.885,3.781l-.2-3.261h-4.535l.026.417c.133,2.033.19,4.266.19,7.476v25.263h4.96V641.577a8.7,8.7,0,0,0,6.776,2.912,10.237,10.237,0,0,0,7.518-3.194c2.169-2.3,3.316-5.6,3.316-9.538a13.192,13.192,0,0,0-2.882-8.709A9.43,9.43,0,0,0,340.625,619.69Zm-1.234,4.1c4.419,0,6.4,4.095,6.4,8.152,0,5.235-2.526,8.486-6.587,8.486a6.011,6.011,0,0,1-5.842-4.6,6.352,6.352,0,0,1-.174-1.606v-3.987a7.164,7.164,0,0,1,.158-1.228c.024-.133.048-.267.071-.4A6.275,6.275,0,0,1,339.391,623.795Z" transform="translate(-272.819 -610.671)" fill="#fff"/>
      <path id="Path_1347" data-name="Path 1347" d="M403.007,616.724c-4.628-1.792-6.111-3.2-6.111-5.806,0-2.192,1.742-4.4,5.636-4.4a11.267,11.267,0,0,1,5.821,1.461l.421.26,1.4-4.138-.277-.162a14.374,14.374,0,0,0-7.221-1.62c-6.324,0-10.74,3.734-10.74,9.077,0,4.31,2.766,7.321,8.7,9.48,4.207,1.573,5.773,3.184,5.773,5.947,0,3.126-2.416,5.067-6.3,5.067a13.575,13.575,0,0,1-7.147-2.027l-.43-.276-1.331,4.234.244.162a16.975,16.975,0,0,0,8.38,2.155c8.523,0,11.545-5.2,11.545-9.648C411.372,621.9,408.95,619.068,403.007,616.724Z" transform="translate(-303.212 -602.314)" fill="#fff"/>
      <path id="Path_1348" data-name="Path 1348" d="M439.453,609.816l-4.864,1.526v4.12h-3.56v3.964h3.56v12.14c0,2.935.562,4.992,1.717,6.291a6.358,6.358,0,0,0,4.8,1.884,11.665,11.665,0,0,0,3.833-.592l.278-.1-.237-3.971-.475.146a7.471,7.471,0,0,1-2.306.267c-1.922,0-2.742-1.217-2.742-4.071v-12h5.981v-3.964h-5.981Z" transform="translate(-322.366 -605.922)" fill="#fff"/>
      <path id="Path_1349" data-name="Path 1349" d="M471.539,619.69c-6.938,0-11.783,5.178-11.783,12.589,0,7.19,4.689,12.21,11.4,12.21h.046c5.676,0,11.784-3.954,11.784-12.637a12.53,12.53,0,0,0-3.16-8.772A11.034,11.034,0,0,0,471.539,619.69ZM471.4,623.6c4.461,0,6.491,4.349,6.491,8.392,0,4.971-2.77,8.579-6.585,8.579h-.048c-3.761,0-6.491-3.548-6.491-8.436C464.763,627.891,466.814,623.6,471.4,623.6Z" transform="translate(-336.182 -610.671)" fill="#fff"/>
      <path id="Path_1350" data-name="Path 1350" d="M522.34,619.919l-.3-.075a4.767,4.767,0,0,0-1.234-.154,7.073,7.073,0,0,0-6.217,3.991l-.146-3.47H510l.029.417c.132,1.963.187,4.167.187,7.141l-.047,16.2h4.96V631.33a12.947,12.947,0,0,1,.136-1.921c.561-3.037,2.608-5,5.218-5a12.836,12.836,0,0,1,1.331.083l.53.055Z" transform="translate(-360.344 -610.671)" fill="#fff"/>
      <path id="Path_1351" data-name="Path 1351" d="M544.868,619.6c-6.6,0-11.214,5.274-11.214,12.826,0,7.273,4.587,11.973,11.687,11.973a19.038,19.038,0,0,0,7.852-1.506l.3-.135-.952-3.694-.415.167a15.356,15.356,0,0,1-6.213,1.111c-2.155,0-7.122-.711-7.427-7.19l16.007.047.064-.316a10.975,10.975,0,0,0,.15-2.069C554.7,625.64,552.128,619.6,544.868,619.6Zm-.332,3.772a4.893,4.893,0,0,1,3.641,1.389,7.05,7.05,0,0,1,1.707,4.616H538.576C539.035,626.512,540.827,623.371,544.536,623.371Z" transform="translate(-371.722 -610.627)" fill="#fff"/>
    </g>
  </g>
</svg>
