<svg xmlns="http://www.w3.org/2000/svg" width="29.402" height="28.454" viewBox="0 0 29.402 28.454">
  <g id="store" transform="translate(-1 -2)">
    <path id="Path_123033" data-name="Path 123033" d="M30.814,6.268V2.948A.948.948,0,0,0,29.866,2H9.948A.948.948,0,0,0,9,2.948v3.32Z" transform="translate(-4.206)" fill="#17c661"/>
    <path id="Path_123034" data-name="Path 123034" d="M30.3,17.446,26.741,13H4.661L1.1,17.446a.472.472,0,0,0-.1.3,3.792,3.792,0,0,0,6.4,2.752,3.787,3.787,0,0,0,5.454-.246,3.788,3.788,0,0,0,5.691,0A3.787,3.787,0,0,0,24,20.495a3.792,3.792,0,0,0,6.4-2.752A.474.474,0,0,0,30.3,17.446Z" transform="translate(0 -5.783)" fill="#17c661"/>
    <path id="Path_123035" data-name="Path 123035" d="M29.763,31.948a4.711,4.711,0,0,1-2.608-.782A4.743,4.743,0,0,1,21.7,31a4.742,4.742,0,0,1-5.691,0,4.743,4.743,0,0,1-5.454.167A4.743,4.743,0,0,1,7,31.853v12.9a.948.948,0,0,0,.948.948h12.8a.474.474,0,0,0,.474-.474V37.639h4.742v7.588a.474.474,0,0,0,.474.474h3.32a.948.948,0,0,0,.948-.948v-12.9A4.734,4.734,0,0,1,29.763,31.948ZM16.01,39.536a.474.474,0,0,1-.474.474H11.742a.474.474,0,0,1-.474-.474V35.742a.474.474,0,0,1,.474-.474h3.794a.474.474,0,0,1,.474.474Z" transform="translate(-3.155 -15.247)" fill="#17c661"/>
  </g>
</svg>
