<svg xmlns="http://www.w3.org/2000/svg" width="67" height="69" viewBox="0 0 67 69">
  <g id="tips_false" transform="translate(-0.052 -0.222)">
    <ellipse id="Ellipse_173" data-name="Ellipse 173" cx="33.5" cy="34.5" rx="33.5" ry="34.5" transform="translate(0.052 0.222)" fill="#e63838"/>
    <g id="noun_Close_887590" transform="translate(33.627 10.617) rotate(45)">
      <path id="Path_95" data-name="Path 95" d="M14.905,12.16,23.731,3.4a2.028,2.028,0,0,0,.588-1.438A1.88,1.88,0,0,0,23.731.654a2.013,2.013,0,0,0-2.746,0L12.16,9.414,3.4.588A2.028,2.028,0,0,0,1.961,0,1.88,1.88,0,0,0,.654.588,2.11,2.11,0,0,0,.131,1.961,1.689,1.689,0,0,0,.719,3.334L9.414,12.16.588,20.92A2.028,2.028,0,0,0,0,22.358a1.88,1.88,0,0,0,.588,1.307,2.11,2.11,0,0,0,1.373.523A1.78,1.78,0,0,0,3.334,23.6l8.826-8.695,8.76,8.826a1.882,1.882,0,0,0,1.373.588h.065a1.88,1.88,0,0,0,1.307-.588,2.09,2.09,0,0,0,.065-2.746Z" transform="translate(17.196 0) rotate(45)" fill="#fff"/>
    </g>
  </g>
</svg>
