<svg xmlns="http://www.w3.org/2000/svg" width="69" height="69" viewBox="0 0 69 69">
  <g id="tips_corect" transform="translate(-0.223 -0.222)">
    <g id="Group_233" data-name="Group 233" transform="translate(0 0)">
      <circle id="Ellipse_173" data-name="Ellipse 173" cx="34.5" cy="34.5" r="34.5" transform="translate(0.223 0.222)" fill="#17c661"/>
    </g>
    <g id="Group_239" data-name="Group 239" transform="translate(13.249 24.588)">
      <g id="Group_127" data-name="Group 127" transform="translate(0 0)">
        <path id="Path_103" data-name="Path 103" d="M4.321,37.976h0Z" transform="translate(-4.317 -33.873)" fill="#fff"/>
        <path id="Path_104" data-name="Path 104" d="M53.819,31.792a2.678,2.678,0,0,0-3.7,0l-15.4,15.4-5.052-5.05a2.679,2.679,0,0,0-3.7,0,2.621,2.621,0,0,0,0,3.7l6.905,6.907a2.619,2.619,0,0,0,1.842.758,2.585,2.585,0,0,0,1.844-.764L53.817,35.487a2.614,2.614,0,0,0,0-3.7Z" transform="translate(-17.04 -31.05)" fill="#fff"/>
      </g>
    </g>
  </g>
</svg>
