<svg xmlns="http://www.w3.org/2000/svg" xmlns:xlink="http://www.w3.org/1999/xlink" width="21.526" height="21.523" viewBox="0 0 21.526 21.523">
  <defs>
    <filter id="Path_81513" x="0" y="0" width="21.526" height="21.523" filterUnits="userSpaceOnUse">
      <feOffset dy="3" input="SourceAlpha"/>
      <feGaussianBlur stdDeviation="3" result="blur"/>
      <feFlood flood-opacity="0.161" result="color"/>
      <feComposite operator="out" in="SourceGraphic" in2="blur"/>
      <feComposite operator="in" in="color"/>
      <feComposite operator="in" in2="SourceGraphic"/>
    </filter>
  </defs>
  <g id="ver" transform="translate(0 0)">
    <path id="Path_81538" data-name="Path 81538" d="M7.261,0A7.26,7.26,0,1,1,0,7.26,7.26,7.26,0,0,1,7.261,0Z" transform="translate(3.778 4.065)" fill="#fff"/>
    <g data-type="innerShadowGroup">
      <path id="Path_81513-2" data-name="Path 81513" d="M201.967,233.721l-2.5-1.442-1.442-2.5h-2.884l-.988-.57-1.509-.871-.011.006-.654.377-1.833,1.058h-2.884l-.8,1.388-.64,1.11-2.5,1.442v2.884l-1.442,2.5,1.442,2.5v2.883l2.5,1.442,1.213,2.1.229.4h2.884l2.5,1.442,2.5-1.442h2.884l1.442-2.5,2.5-1.442V241.6l1.442-2.5-1.442-2.5v-2.883h0Zm-3.745,3.239-1.309,1.309-2.757,2.757-2.48,2.48a1.046,1.046,0,0,1-1.456,0l-3.147-3.147a1.01,1.01,0,0,1,0-1.429l.833-.833a1.009,1.009,0,0,1,1.428,0l1.614,1.614,3.208-3.208,1.8-1.8a1.02,1.02,0,0,1,1.429,0l.833.833A1.011,1.011,0,0,1,198.222,236.96Z" transform="translate(-181.885 -228.341)" fill="#17c661"/>
      <g transform="matrix(1, 0, 0, 1, 0, 0)" filter="url(#Path_81513)">
        <path id="Path_81513-3" data-name="Path 81513" d="M201.967,233.721l-2.5-1.442-1.442-2.5h-2.884l-.988-.57-1.509-.871-.011.006-.654.377-1.833,1.058h-2.884l-.8,1.388-.64,1.11-2.5,1.442v2.884l-1.442,2.5,1.442,2.5v2.883l2.5,1.442,1.213,2.1.229.4h2.884l2.5,1.442,2.5-1.442h2.884l1.442-2.5,2.5-1.442V241.6l1.442-2.5-1.442-2.5v-2.883h0Zm-3.745,3.239-1.309,1.309-2.757,2.757-2.48,2.48a1.046,1.046,0,0,1-1.456,0l-3.147-3.147a1.01,1.01,0,0,1,0-1.429l.833-.833a1.009,1.009,0,0,1,1.428,0l1.614,1.614,3.208-3.208,1.8-1.8a1.02,1.02,0,0,1,1.429,0l.833.833A1.011,1.011,0,0,1,198.222,236.96Z" transform="translate(-181.89 -228.34)" fill="#fff"/>
      </g>
    </g>
  </g>
</svg>
